<mxfile host="app.diagrams.net" agent="Mozilla/5.0 (X11; Linux x86_64) AppleWebKit/537.36 (KHTML, like Gecko) Chrome/131.0.0.0 Safari/537.36" version="25.0.3">
  <diagram name="VastAI_Deployment_Workflow" id="MLPsBUMXMuNntq-nhRvj">
    <mxGraphModel dx="1732" dy="598" grid="1" gridSize="10" guides="1" tooltips="1" connect="1" arrows="1" fold="1" page="1" pageScale="1" pageWidth="827" pageHeight="1169" math="0" shadow="0">
      <root>
        <mxCell id="0" />
        <mxCell id="1" parent="0" />
        <mxCell id="LiQD6WQA2YHTvC3KKHP3-222" style="edgeStyle=orthogonalEdgeStyle;rounded=0;orthogonalLoop=1;jettySize=auto;html=1;entryX=0.5;entryY=1;entryDx=0;entryDy=0;strokeWidth=5;" edge="1" parent="1" source="LiQD6WQA2YHTvC3KKHP3-117" target="LiQD6WQA2YHTvC3KKHP3-213">
          <mxGeometry relative="1" as="geometry" />
        </mxCell>
        <mxCell id="LiQD6WQA2YHTvC3KKHP3-117" value="" style="rounded=1;whiteSpace=wrap;html=1;fillColor=none;dashed=1;" vertex="1" parent="1">
          <mxGeometry x="-80" y="490" width="1200" height="190" as="geometry" />
        </mxCell>
        <mxCell id="LiQD6WQA2YHTvC3KKHP3-22" style="edgeStyle=orthogonalEdgeStyle;rounded=0;orthogonalLoop=1;jettySize=auto;html=1;" edge="1" parent="1" source="LiQD6WQA2YHTvC3KKHP3-2" target="LiQD6WQA2YHTvC3KKHP3-8">
          <mxGeometry relative="1" as="geometry" />
        </mxCell>
        <mxCell id="LiQD6WQA2YHTvC3KKHP3-2" value="" style="shape=cube;whiteSpace=wrap;html=1;boundedLbl=1;backgroundOutline=1;darkOpacity=0.05;darkOpacity2=0.1;rotation=90;fillColor=#f5f5f5;fontColor=#333333;strokeColor=#666666;" vertex="1" parent="1">
          <mxGeometry x="30" y="250" width="120" height="80" as="geometry" />
        </mxCell>
        <mxCell id="LiQD6WQA2YHTvC3KKHP3-6" value="&lt;font style=&quot;font-size: 18px;&quot;&gt;Init&lt;/font&gt;" style="text;html=1;align=center;verticalAlign=middle;resizable=0;points=[];autosize=1;strokeColor=none;fillColor=none;" vertex="1" parent="1">
          <mxGeometry x="65" y="360" width="50" height="40" as="geometry" />
        </mxCell>
        <mxCell id="LiQD6WQA2YHTvC3KKHP3-8" value="" style="shape=cube;whiteSpace=wrap;html=1;boundedLbl=1;backgroundOutline=1;darkOpacity=0.05;darkOpacity2=0.1;rotation=90;fillColor=#dae8fc;strokeColor=#6c8ebf;" vertex="1" parent="1">
          <mxGeometry x="150" y="250" width="120" height="80" as="geometry" />
        </mxCell>
        <mxCell id="LiQD6WQA2YHTvC3KKHP3-9" value="&lt;span style=&quot;font-size: 18px;&quot;&gt;Conv1&lt;/span&gt;" style="text;html=1;align=center;verticalAlign=middle;resizable=0;points=[];autosize=1;strokeColor=none;fillColor=none;" vertex="1" parent="1">
          <mxGeometry x="170" y="360" width="80" height="40" as="geometry" />
        </mxCell>
        <mxCell id="LiQD6WQA2YHTvC3KKHP3-10" value="" style="shape=cube;whiteSpace=wrap;html=1;boundedLbl=1;backgroundOutline=1;darkOpacity=0.05;darkOpacity2=0.1;rotation=90;fillColor=#dae8fc;strokeColor=#6c8ebf;" vertex="1" parent="1">
          <mxGeometry x="270" y="250" width="120" height="80" as="geometry" />
        </mxCell>
        <mxCell id="LiQD6WQA2YHTvC3KKHP3-11" value="&lt;span style=&quot;font-size: 18px;&quot;&gt;Conv2&lt;/span&gt;" style="text;html=1;align=center;verticalAlign=middle;resizable=0;points=[];autosize=1;strokeColor=none;fillColor=none;" vertex="1" parent="1">
          <mxGeometry x="290" y="360" width="80" height="40" as="geometry" />
        </mxCell>
        <mxCell id="LiQD6WQA2YHTvC3KKHP3-26" style="edgeStyle=orthogonalEdgeStyle;rounded=0;orthogonalLoop=1;jettySize=auto;html=1;" edge="1" parent="1" source="LiQD6WQA2YHTvC3KKHP3-12" target="LiQD6WQA2YHTvC3KKHP3-14">
          <mxGeometry relative="1" as="geometry" />
        </mxCell>
        <mxCell id="LiQD6WQA2YHTvC3KKHP3-12" value="" style="shape=cube;whiteSpace=wrap;html=1;boundedLbl=1;backgroundOutline=1;darkOpacity=0.05;darkOpacity2=0.1;rotation=90;fillColor=#d5e8d4;strokeColor=#82b366;" vertex="1" parent="1">
          <mxGeometry x="390" y="250" width="120" height="80" as="geometry" />
        </mxCell>
        <mxCell id="LiQD6WQA2YHTvC3KKHP3-13" value="&lt;font style=&quot;font-size: 18px;&quot;&gt;Transition1&lt;/font&gt;" style="text;html=1;align=center;verticalAlign=middle;resizable=0;points=[];autosize=1;strokeColor=none;fillColor=none;" vertex="1" parent="1">
          <mxGeometry x="395" y="360" width="110" height="40" as="geometry" />
        </mxCell>
        <mxCell id="LiQD6WQA2YHTvC3KKHP3-27" style="edgeStyle=orthogonalEdgeStyle;rounded=0;orthogonalLoop=1;jettySize=auto;html=1;" edge="1" parent="1" source="LiQD6WQA2YHTvC3KKHP3-14" target="LiQD6WQA2YHTvC3KKHP3-16">
          <mxGeometry relative="1" as="geometry" />
        </mxCell>
        <mxCell id="LiQD6WQA2YHTvC3KKHP3-14" value="" style="shape=cube;whiteSpace=wrap;html=1;boundedLbl=1;backgroundOutline=1;darkOpacity=0.05;darkOpacity2=0.1;rotation=90;fillColor=#d5e8d4;strokeColor=#82b366;" vertex="1" parent="1">
          <mxGeometry x="510" y="250" width="120" height="80" as="geometry" />
        </mxCell>
        <mxCell id="LiQD6WQA2YHTvC3KKHP3-15" value="&lt;span style=&quot;font-size: 18px;&quot;&gt;Transition2&lt;/span&gt;" style="text;html=1;align=center;verticalAlign=middle;resizable=0;points=[];autosize=1;strokeColor=none;fillColor=none;" vertex="1" parent="1">
          <mxGeometry x="515" y="360" width="110" height="40" as="geometry" />
        </mxCell>
        <mxCell id="LiQD6WQA2YHTvC3KKHP3-16" value="" style="shape=cube;whiteSpace=wrap;html=1;boundedLbl=1;backgroundOutline=1;darkOpacity=0.05;darkOpacity2=0.1;rotation=90;fillColor=#ffe6cc;strokeColor=#d79b00;" vertex="1" parent="1">
          <mxGeometry x="630" y="250" width="120" height="80" as="geometry" />
        </mxCell>
        <mxCell id="LiQD6WQA2YHTvC3KKHP3-17" value="&lt;span style=&quot;font-size: 18px;&quot;&gt;Deep1&lt;/span&gt;" style="text;html=1;align=center;verticalAlign=middle;resizable=0;points=[];autosize=1;strokeColor=none;fillColor=none;" vertex="1" parent="1">
          <mxGeometry x="650" y="360" width="80" height="40" as="geometry" />
        </mxCell>
        <mxCell id="LiQD6WQA2YHTvC3KKHP3-18" value="" style="shape=cube;whiteSpace=wrap;html=1;boundedLbl=1;backgroundOutline=1;darkOpacity=0.05;darkOpacity2=0.1;rotation=90;fillColor=#ffe6cc;strokeColor=#d79b00;" vertex="1" parent="1">
          <mxGeometry x="740" y="250" width="120" height="80" as="geometry" />
        </mxCell>
        <mxCell id="LiQD6WQA2YHTvC3KKHP3-19" value="&lt;span style=&quot;font-size: 18px;&quot;&gt;Deep2&lt;/span&gt;" style="text;html=1;align=center;verticalAlign=middle;resizable=0;points=[];autosize=1;strokeColor=none;fillColor=none;" vertex="1" parent="1">
          <mxGeometry x="760" y="360" width="80" height="40" as="geometry" />
        </mxCell>
        <mxCell id="LiQD6WQA2YHTvC3KKHP3-20" value="" style="shape=cube;whiteSpace=wrap;html=1;boundedLbl=1;backgroundOutline=1;darkOpacity=0.05;darkOpacity2=0.1;rotation=90;fillColor=#f8cecc;strokeColor=#b85450;" vertex="1" parent="1">
          <mxGeometry x="860" y="250" width="120" height="80" as="geometry" />
        </mxCell>
        <mxCell id="LiQD6WQA2YHTvC3KKHP3-21" value="&lt;span style=&quot;font-size: 18px;&quot;&gt;AvgPool&lt;/span&gt;" style="text;html=1;align=center;verticalAlign=middle;resizable=0;points=[];autosize=1;strokeColor=none;fillColor=none;" vertex="1" parent="1">
          <mxGeometry x="875" y="360" width="90" height="40" as="geometry" />
        </mxCell>
        <mxCell id="LiQD6WQA2YHTvC3KKHP3-23" style="edgeStyle=orthogonalEdgeStyle;rounded=0;orthogonalLoop=1;jettySize=auto;html=1;entryX=0.508;entryY=1.017;entryDx=0;entryDy=0;entryPerimeter=0;" edge="1" parent="1" source="LiQD6WQA2YHTvC3KKHP3-8" target="LiQD6WQA2YHTvC3KKHP3-10">
          <mxGeometry relative="1" as="geometry" />
        </mxCell>
        <mxCell id="LiQD6WQA2YHTvC3KKHP3-25" style="edgeStyle=orthogonalEdgeStyle;rounded=0;orthogonalLoop=1;jettySize=auto;html=1;entryX=0.495;entryY=0.985;entryDx=0;entryDy=0;entryPerimeter=0;" edge="1" parent="1" source="LiQD6WQA2YHTvC3KKHP3-10" target="LiQD6WQA2YHTvC3KKHP3-12">
          <mxGeometry relative="1" as="geometry" />
        </mxCell>
        <mxCell id="LiQD6WQA2YHTvC3KKHP3-31" style="edgeStyle=orthogonalEdgeStyle;rounded=0;orthogonalLoop=1;jettySize=auto;html=1;entryX=0.508;entryY=0.981;entryDx=0;entryDy=0;entryPerimeter=0;" edge="1" parent="1" source="LiQD6WQA2YHTvC3KKHP3-16" target="LiQD6WQA2YHTvC3KKHP3-18">
          <mxGeometry relative="1" as="geometry" />
        </mxCell>
        <mxCell id="LiQD6WQA2YHTvC3KKHP3-32" style="edgeStyle=orthogonalEdgeStyle;rounded=0;orthogonalLoop=1;jettySize=auto;html=1;entryX=0.504;entryY=0.975;entryDx=0;entryDy=0;entryPerimeter=0;" edge="1" parent="1" source="LiQD6WQA2YHTvC3KKHP3-18" target="LiQD6WQA2YHTvC3KKHP3-20">
          <mxGeometry relative="1" as="geometry" />
        </mxCell>
        <mxCell id="LiQD6WQA2YHTvC3KKHP3-36" value="" style="shape=cube;whiteSpace=wrap;html=1;boundedLbl=1;backgroundOutline=1;darkOpacity=0.05;darkOpacity2=0.1;flipH=1;rotation=90;flipV=0;direction=south;fillColor=#f5f5f5;fontColor=#333333;strokeColor=#666666;" vertex="1" parent="1">
          <mxGeometry x="-67.5" y="560" width="80" height="50" as="geometry" />
        </mxCell>
        <mxCell id="LiQD6WQA2YHTvC3KKHP3-101" style="edgeStyle=orthogonalEdgeStyle;rounded=0;orthogonalLoop=1;jettySize=auto;html=1;" edge="1" parent="1" source="LiQD6WQA2YHTvC3KKHP3-41" target="LiQD6WQA2YHTvC3KKHP3-70">
          <mxGeometry relative="1" as="geometry" />
        </mxCell>
        <mxCell id="LiQD6WQA2YHTvC3KKHP3-41" value="" style="shape=cube;whiteSpace=wrap;html=1;boundedLbl=1;backgroundOutline=1;darkOpacity=0.05;darkOpacity2=0.1;flipH=1;rotation=90;flipV=0;direction=south;fillColor=#dae8fc;strokeColor=#6c8ebf;" vertex="1" parent="1">
          <mxGeometry x="12.5" y="560" width="80" height="50" as="geometry" />
        </mxCell>
        <mxCell id="LiQD6WQA2YHTvC3KKHP3-102" style="edgeStyle=orthogonalEdgeStyle;rounded=0;orthogonalLoop=1;jettySize=auto;html=1;" edge="1" parent="1" source="LiQD6WQA2YHTvC3KKHP3-70" target="LiQD6WQA2YHTvC3KKHP3-71">
          <mxGeometry relative="1" as="geometry" />
        </mxCell>
        <mxCell id="LiQD6WQA2YHTvC3KKHP3-70" value="" style="shape=cube;whiteSpace=wrap;html=1;boundedLbl=1;backgroundOutline=1;darkOpacity=0.05;darkOpacity2=0.1;flipH=1;rotation=90;flipV=0;direction=south;fillColor=#60a917;strokeColor=#2D7600;fontColor=#ffffff;" vertex="1" parent="1">
          <mxGeometry x="102.5" y="560" width="80" height="50" as="geometry" />
        </mxCell>
        <mxCell id="LiQD6WQA2YHTvC3KKHP3-103" style="edgeStyle=orthogonalEdgeStyle;rounded=0;orthogonalLoop=1;jettySize=auto;html=1;" edge="1" parent="1" source="LiQD6WQA2YHTvC3KKHP3-71" target="LiQD6WQA2YHTvC3KKHP3-72">
          <mxGeometry relative="1" as="geometry" />
        </mxCell>
        <mxCell id="LiQD6WQA2YHTvC3KKHP3-71" value="" style="shape=cube;whiteSpace=wrap;html=1;boundedLbl=1;backgroundOutline=1;darkOpacity=0.05;darkOpacity2=0.1;flipH=1;rotation=90;flipV=0;direction=south;fillColor=#dae8fc;strokeColor=#6c8ebf;" vertex="1" parent="1">
          <mxGeometry x="182.5" y="560" width="80" height="50" as="geometry" />
        </mxCell>
        <mxCell id="LiQD6WQA2YHTvC3KKHP3-104" style="edgeStyle=orthogonalEdgeStyle;rounded=0;orthogonalLoop=1;jettySize=auto;html=1;" edge="1" parent="1" source="LiQD6WQA2YHTvC3KKHP3-72" target="LiQD6WQA2YHTvC3KKHP3-73">
          <mxGeometry relative="1" as="geometry" />
        </mxCell>
        <mxCell id="LiQD6WQA2YHTvC3KKHP3-72" value="" style="shape=cube;whiteSpace=wrap;html=1;boundedLbl=1;backgroundOutline=1;darkOpacity=0.05;darkOpacity2=0.1;flipH=1;rotation=90;flipV=0;direction=south;fillColor=#60a917;strokeColor=#2D7600;fontColor=#ffffff;" vertex="1" parent="1">
          <mxGeometry x="272.5" y="560" width="80" height="50" as="geometry" />
        </mxCell>
        <mxCell id="LiQD6WQA2YHTvC3KKHP3-73" value="" style="shape=cube;whiteSpace=wrap;html=1;boundedLbl=1;backgroundOutline=1;darkOpacity=0.05;darkOpacity2=0.1;flipH=1;rotation=90;flipV=0;direction=south;fillColor=#dae8fc;strokeColor=#6c8ebf;" vertex="1" parent="1">
          <mxGeometry x="352.5" y="560" width="80" height="50" as="geometry" />
        </mxCell>
        <mxCell id="LiQD6WQA2YHTvC3KKHP3-74" value="" style="shape=cube;whiteSpace=wrap;html=1;boundedLbl=1;backgroundOutline=1;darkOpacity=0.05;darkOpacity2=0.1;flipH=1;rotation=90;flipV=0;direction=south;fillColor=#60a917;strokeColor=#2D7600;fontColor=#ffffff;" vertex="1" parent="1">
          <mxGeometry x="442.5" y="560" width="80" height="50" as="geometry" />
        </mxCell>
        <mxCell id="LiQD6WQA2YHTvC3KKHP3-75" value="" style="shape=cube;whiteSpace=wrap;html=1;boundedLbl=1;backgroundOutline=1;darkOpacity=0.05;darkOpacity2=0.1;flipH=1;rotation=90;flipV=0;direction=south;fillColor=#dae8fc;strokeColor=#6c8ebf;" vertex="1" parent="1">
          <mxGeometry x="522.5" y="560" width="80" height="50" as="geometry" />
        </mxCell>
        <mxCell id="LiQD6WQA2YHTvC3KKHP3-76" value="" style="shape=cube;whiteSpace=wrap;html=1;boundedLbl=1;backgroundOutline=1;darkOpacity=0.05;darkOpacity2=0.1;flipH=1;rotation=90;flipV=0;direction=south;fillColor=#60a917;strokeColor=#2D7600;fontColor=#ffffff;" vertex="1" parent="1">
          <mxGeometry x="612.5" y="560" width="80" height="50" as="geometry" />
        </mxCell>
        <mxCell id="LiQD6WQA2YHTvC3KKHP3-77" value="" style="shape=cube;whiteSpace=wrap;html=1;boundedLbl=1;backgroundOutline=1;darkOpacity=0.05;darkOpacity2=0.1;flipH=1;rotation=90;flipV=0;direction=south;fillColor=#dae8fc;strokeColor=#6c8ebf;" vertex="1" parent="1">
          <mxGeometry x="692.5" y="560" width="80" height="50" as="geometry" />
        </mxCell>
        <mxCell id="LiQD6WQA2YHTvC3KKHP3-78" value="" style="shape=cube;whiteSpace=wrap;html=1;boundedLbl=1;backgroundOutline=1;darkOpacity=0.05;darkOpacity2=0.1;flipH=1;rotation=90;flipV=0;direction=south;fillColor=#60a917;strokeColor=#2D7600;fontColor=#ffffff;" vertex="1" parent="1">
          <mxGeometry x="777.5" y="560" width="80" height="50" as="geometry" />
        </mxCell>
        <mxCell id="LiQD6WQA2YHTvC3KKHP3-79" value="" style="shape=cube;whiteSpace=wrap;html=1;boundedLbl=1;backgroundOutline=1;darkOpacity=0.05;darkOpacity2=0.1;flipH=1;rotation=90;flipV=0;direction=south;fillColor=#dae8fc;strokeColor=#6c8ebf;" vertex="1" parent="1">
          <mxGeometry x="857.5" y="560" width="80" height="50" as="geometry" />
        </mxCell>
        <mxCell id="LiQD6WQA2YHTvC3KKHP3-80" value="" style="shape=cube;whiteSpace=wrap;html=1;boundedLbl=1;backgroundOutline=1;darkOpacity=0.05;darkOpacity2=0.1;flipH=1;rotation=90;flipV=0;direction=south;fillColor=#60a917;strokeColor=#2D7600;fontColor=#ffffff;" vertex="1" parent="1">
          <mxGeometry x="937.5" y="560" width="80" height="50" as="geometry" />
        </mxCell>
        <mxCell id="LiQD6WQA2YHTvC3KKHP3-81" value="" style="shape=cube;whiteSpace=wrap;html=1;boundedLbl=1;backgroundOutline=1;darkOpacity=0.05;darkOpacity2=0.1;flipH=1;rotation=90;flipV=0;direction=south;fillColor=#f8cecc;strokeColor=#b85450;" vertex="1" parent="1">
          <mxGeometry x="1017.5" y="560" width="80" height="50" as="geometry" />
        </mxCell>
        <mxCell id="LiQD6WQA2YHTvC3KKHP3-82" value="&lt;font style=&quot;font-size: 18px;&quot;&gt;Init&lt;/font&gt;" style="text;html=1;align=center;verticalAlign=middle;resizable=0;points=[];autosize=1;strokeColor=none;fillColor=none;" vertex="1" parent="1">
          <mxGeometry x="-52.5" y="645" width="50" height="40" as="geometry" />
        </mxCell>
        <mxCell id="LiQD6WQA2YHTvC3KKHP3-84" value="&lt;font style=&quot;font-size: 18px;&quot;&gt;Conv1&lt;/font&gt;" style="text;html=1;align=center;verticalAlign=middle;resizable=0;points=[];autosize=1;strokeColor=none;fillColor=none;" vertex="1" parent="1">
          <mxGeometry x="12.5" y="645" width="80" height="40" as="geometry" />
        </mxCell>
        <mxCell id="LiQD6WQA2YHTvC3KKHP3-85" value="&lt;font style=&quot;font-size: 18px;&quot;&gt;MBConv1&lt;/font&gt;" style="text;html=1;align=center;verticalAlign=middle;resizable=0;points=[];autosize=1;strokeColor=none;fillColor=none;" vertex="1" parent="1">
          <mxGeometry x="92.5" y="645" width="100" height="40" as="geometry" />
        </mxCell>
        <mxCell id="LiQD6WQA2YHTvC3KKHP3-86" value="&lt;font style=&quot;font-size: 18px;&quot;&gt;Conv2&lt;/font&gt;" style="text;html=1;align=center;verticalAlign=middle;resizable=0;points=[];autosize=1;strokeColor=none;fillColor=none;" vertex="1" parent="1">
          <mxGeometry x="182.5" y="645" width="80" height="40" as="geometry" />
        </mxCell>
        <mxCell id="LiQD6WQA2YHTvC3KKHP3-87" value="&lt;font style=&quot;font-size: 18px;&quot;&gt;MBConv2&lt;/font&gt;" style="text;html=1;align=center;verticalAlign=middle;resizable=0;points=[];autosize=1;strokeColor=none;fillColor=none;" vertex="1" parent="1">
          <mxGeometry x="262.5" y="645" width="100" height="40" as="geometry" />
        </mxCell>
        <mxCell id="LiQD6WQA2YHTvC3KKHP3-88" value="&lt;font style=&quot;font-size: 18px;&quot;&gt;Conv3&lt;/font&gt;" style="text;html=1;align=center;verticalAlign=middle;resizable=0;points=[];autosize=1;strokeColor=none;fillColor=none;" vertex="1" parent="1">
          <mxGeometry x="352.5" y="645" width="80" height="40" as="geometry" />
        </mxCell>
        <mxCell id="LiQD6WQA2YHTvC3KKHP3-89" value="&lt;font style=&quot;font-size: 18px;&quot;&gt;MBConv3&lt;/font&gt;" style="text;html=1;align=center;verticalAlign=middle;resizable=0;points=[];autosize=1;strokeColor=none;fillColor=none;" vertex="1" parent="1">
          <mxGeometry x="432.5" y="645" width="100" height="40" as="geometry" />
        </mxCell>
        <mxCell id="LiQD6WQA2YHTvC3KKHP3-90" value="&lt;font style=&quot;font-size: 18px;&quot;&gt;Conv4&lt;/font&gt;" style="text;html=1;align=center;verticalAlign=middle;resizable=0;points=[];autosize=1;strokeColor=none;fillColor=none;" vertex="1" parent="1">
          <mxGeometry x="522.5" y="645" width="80" height="40" as="geometry" />
        </mxCell>
        <mxCell id="LiQD6WQA2YHTvC3KKHP3-91" value="&lt;font style=&quot;font-size: 18px;&quot;&gt;MBConv4&lt;/font&gt;" style="text;html=1;align=center;verticalAlign=middle;resizable=0;points=[];autosize=1;strokeColor=none;fillColor=none;" vertex="1" parent="1">
          <mxGeometry x="602.5" y="645" width="100" height="40" as="geometry" />
        </mxCell>
        <mxCell id="LiQD6WQA2YHTvC3KKHP3-94" value="&lt;font style=&quot;font-size: 18px;&quot;&gt;Conv5&lt;/font&gt;" style="text;html=1;align=center;verticalAlign=middle;resizable=0;points=[];autosize=1;strokeColor=none;fillColor=none;" vertex="1" parent="1">
          <mxGeometry x="692.5" y="645" width="80" height="40" as="geometry" />
        </mxCell>
        <mxCell id="LiQD6WQA2YHTvC3KKHP3-95" value="&lt;font style=&quot;font-size: 18px;&quot;&gt;MBConv5&lt;/font&gt;" style="text;html=1;align=center;verticalAlign=middle;resizable=0;points=[];autosize=1;strokeColor=none;fillColor=none;" vertex="1" parent="1">
          <mxGeometry x="772.5" y="645" width="100" height="40" as="geometry" />
        </mxCell>
        <mxCell id="LiQD6WQA2YHTvC3KKHP3-96" value="&lt;font style=&quot;font-size: 18px;&quot;&gt;Conv6&lt;/font&gt;" style="text;html=1;align=center;verticalAlign=middle;resizable=0;points=[];autosize=1;strokeColor=none;fillColor=none;" vertex="1" parent="1">
          <mxGeometry x="857.5" y="645" width="80" height="40" as="geometry" />
        </mxCell>
        <mxCell id="LiQD6WQA2YHTvC3KKHP3-97" value="&lt;font style=&quot;font-size: 18px;&quot;&gt;MBConv6&lt;/font&gt;" style="text;html=1;align=center;verticalAlign=middle;resizable=0;points=[];autosize=1;strokeColor=none;fillColor=none;" vertex="1" parent="1">
          <mxGeometry x="927.5" y="645" width="100" height="40" as="geometry" />
        </mxCell>
        <mxCell id="LiQD6WQA2YHTvC3KKHP3-99" value="&lt;span style=&quot;font-size: 18px;&quot;&gt;AvgPool&lt;/span&gt;" style="text;html=1;align=center;verticalAlign=middle;resizable=0;points=[];autosize=1;strokeColor=none;fillColor=none;" vertex="1" parent="1">
          <mxGeometry x="1012.5" y="645" width="90" height="40" as="geometry" />
        </mxCell>
        <mxCell id="LiQD6WQA2YHTvC3KKHP3-100" style="edgeStyle=orthogonalEdgeStyle;rounded=0;orthogonalLoop=1;jettySize=auto;html=1;entryX=0.968;entryY=0.499;entryDx=0;entryDy=0;entryPerimeter=0;" edge="1" parent="1" source="LiQD6WQA2YHTvC3KKHP3-36" target="LiQD6WQA2YHTvC3KKHP3-41">
          <mxGeometry relative="1" as="geometry" />
        </mxCell>
        <mxCell id="LiQD6WQA2YHTvC3KKHP3-106" style="edgeStyle=orthogonalEdgeStyle;rounded=0;orthogonalLoop=1;jettySize=auto;html=1;entryX=1.034;entryY=0.493;entryDx=0;entryDy=0;entryPerimeter=0;" edge="1" parent="1" source="LiQD6WQA2YHTvC3KKHP3-73" target="LiQD6WQA2YHTvC3KKHP3-74">
          <mxGeometry relative="1" as="geometry" />
        </mxCell>
        <mxCell id="LiQD6WQA2YHTvC3KKHP3-107" style="edgeStyle=orthogonalEdgeStyle;rounded=0;orthogonalLoop=1;jettySize=auto;html=1;entryX=1.01;entryY=0.493;entryDx=0;entryDy=0;entryPerimeter=0;" edge="1" parent="1" source="LiQD6WQA2YHTvC3KKHP3-74" target="LiQD6WQA2YHTvC3KKHP3-75">
          <mxGeometry relative="1" as="geometry" />
        </mxCell>
        <mxCell id="LiQD6WQA2YHTvC3KKHP3-108" style="edgeStyle=orthogonalEdgeStyle;rounded=0;orthogonalLoop=1;jettySize=auto;html=1;entryX=0.983;entryY=0.498;entryDx=0;entryDy=0;entryPerimeter=0;" edge="1" parent="1" source="LiQD6WQA2YHTvC3KKHP3-75" target="LiQD6WQA2YHTvC3KKHP3-76">
          <mxGeometry relative="1" as="geometry" />
        </mxCell>
        <mxCell id="LiQD6WQA2YHTvC3KKHP3-109" style="edgeStyle=orthogonalEdgeStyle;rounded=0;orthogonalLoop=1;jettySize=auto;html=1;entryX=1.037;entryY=0.493;entryDx=0;entryDy=0;entryPerimeter=0;" edge="1" parent="1" source="LiQD6WQA2YHTvC3KKHP3-76" target="LiQD6WQA2YHTvC3KKHP3-77">
          <mxGeometry relative="1" as="geometry" />
        </mxCell>
        <mxCell id="LiQD6WQA2YHTvC3KKHP3-111" style="edgeStyle=orthogonalEdgeStyle;rounded=0;orthogonalLoop=1;jettySize=auto;html=1;entryX=0.981;entryY=0.508;entryDx=0;entryDy=0;entryPerimeter=0;" edge="1" parent="1" source="LiQD6WQA2YHTvC3KKHP3-77" target="LiQD6WQA2YHTvC3KKHP3-78">
          <mxGeometry relative="1" as="geometry" />
        </mxCell>
        <mxCell id="LiQD6WQA2YHTvC3KKHP3-112" style="edgeStyle=orthogonalEdgeStyle;rounded=0;orthogonalLoop=1;jettySize=auto;html=1;entryX=0.988;entryY=0.513;entryDx=0;entryDy=0;entryPerimeter=0;" edge="1" parent="1" source="LiQD6WQA2YHTvC3KKHP3-78" target="LiQD6WQA2YHTvC3KKHP3-79">
          <mxGeometry relative="1" as="geometry" />
        </mxCell>
        <mxCell id="LiQD6WQA2YHTvC3KKHP3-115" style="edgeStyle=orthogonalEdgeStyle;rounded=0;orthogonalLoop=1;jettySize=auto;html=1;entryX=1.02;entryY=0.498;entryDx=0;entryDy=0;entryPerimeter=0;" edge="1" parent="1" source="LiQD6WQA2YHTvC3KKHP3-79" target="LiQD6WQA2YHTvC3KKHP3-80">
          <mxGeometry relative="1" as="geometry" />
        </mxCell>
        <mxCell id="LiQD6WQA2YHTvC3KKHP3-116" style="edgeStyle=orthogonalEdgeStyle;rounded=0;orthogonalLoop=1;jettySize=auto;html=1;entryX=0.996;entryY=0.503;entryDx=0;entryDy=0;entryPerimeter=0;" edge="1" parent="1" source="LiQD6WQA2YHTvC3KKHP3-80" target="LiQD6WQA2YHTvC3KKHP3-81">
          <mxGeometry relative="1" as="geometry" />
        </mxCell>
        <mxCell id="LiQD6WQA2YHTvC3KKHP3-118" value="" style="rounded=1;whiteSpace=wrap;html=1;dashed=1;fillColor=none;" vertex="1" parent="1">
          <mxGeometry x="40" y="160" width="930" height="240" as="geometry" />
        </mxCell>
        <mxCell id="LiQD6WQA2YHTvC3KKHP3-120" value="EfficientNet-B0" style="text;html=1;align=center;verticalAlign=middle;whiteSpace=wrap;rounded=0;fontSize=25;fontStyle=1" vertex="1" parent="1">
          <mxGeometry x="405" y="500" width="230" height="30" as="geometry" />
        </mxCell>
        <mxCell id="LiQD6WQA2YHTvC3KKHP3-121" value="Resnet-50" style="text;html=1;align=center;verticalAlign=middle;whiteSpace=wrap;rounded=0;fontSize=25;fontStyle=1" vertex="1" parent="1">
          <mxGeometry x="405" y="180" width="230" height="30" as="geometry" />
        </mxCell>
        <mxCell id="LiQD6WQA2YHTvC3KKHP3-122" value="" style="shape=image;verticalLabelPosition=bottom;labelBackgroundColor=default;verticalAlign=top;aspect=fixed;imageAspect=0;image=data:image/png,iVBORw0KGgoAAAANSUhEUgAAAMgAAADICAAAAACIM/FCAAAFNklEQVR4nO2dSY8TMRCFO0mTYUZi38SF5Q8g8Wf455xYRkLc2AYxMMNkknDwK6TPKjUBCalSqncp2S67+8XS60q17Z4NwC0Wt4MDVc5RuR68WvaQWdDzk9fj7+FeeB9RRKKhiERDGiIzFq83Y7Iru2lmOdFzzdoFx2nQjzbCZVg1cxX9f6LjQTPvhgmkmZEiEg1FJBrSEOnk99qU0+VE28KtZdjry69GPUDHC4y2ZI/zZlbwSTMjRSQaikg0pCEystjxojhfQSVNJ82Klxn9rtHWCf98YjiKuY3jhtb7jyISDUUkGopINNhzRFG0wueOnuJnyfkGxs1z27Azr63rKLv2fAiL2y+9K6eZkSISDUUkGtIQMflVDln5ikPVHqHxTTOUT7la3L2CD2PzLUoGJspdwfb/I9A1zYwUkWgoItGQhojJ77NmxEv5kt8WJWrqx2aUWB6+N3MGV/fXMvVkoyvR0tvuPSWRZkaKSDQUkWhIQ8Tkly8P7b+/VlIoJXGzmUv4PGnmxwD7qhn3HWIH5hBmO7d1SDMjRSQaikg0pCFi8vulGaUSlG2w5IMSwyfoolhYce6WPR41I/nmYgv1V9j8F/JrcBPDaWakiERDEYmGNERMfp83w/yCBbpM6C7Q8y7HU/L4PVxXGG0Lz+FGMwe4sjoqlfGyGZNmV5TTzEgRiYYiEg1piMxeNKsg9mszkj1TQYW0T9FTYirBNknkbpARrgyCbTeItqzM4aOSsr2vMYz5SL+p2/uPIhINRSQaikg0jG+bVb5DOWhTbKW2lVtRbC5xl5ozqLec9gY+eqrchiufKsO3ZvTDPmjmCKPpiWGXXONe08xIEYmGIhINaYiM5yhyr0uXr1BJevehGUmrrbk7ho+Gu6drNaOciPI2JvwKyh82I909aUZ/Luy8jh8w6p9mRopINBSRaEhDZJSmSXAVktohGNLWIzQqTj1ERxNqaeI5Gmk0uInpDdRqkTS3LD7GbdiKEvlMrdLbRxSRaCgi0ZCGyCgtY5xrqQTJn6LPJRrPYOwHuYNxJNgnzSgk7s45Om3mO2q5RWRkjxUal7yBvUcRiYYiEg1piIzukRYG1Up+pYJztI3sr5V4axjppkJiqfBN9dBKum8YTlkLPRuksBLqLkF9iLvafxSRaCgi0ZCGyLjyav2dGtxFxxdga/pwsRx95PJZPfRTnjTDyFZv4I55V1JqaXPJb1AUkWgoItEw8igKZmmtlicKcTOejO3p4NHLPOFOsqnlFJb7/YkePKeCO0VsL/cpGiv3GxRFJBqKSDSkITK76tbS8gw6d1O3ZVH4HFnAKN99n9fgSjwG/lyeZ0nsS9S+825nj1FEoqGIREMaIhZo+3kTng/ntnUlunanFzWc8YpcbMeOqlzBdMMJaWakiERDEYmGNERMfplF6d4oUlPnXqX1cE/R4HA8wbnbYy5IYfkq8YKNVOE0M1JEoqGIREMaIt2HVLZu0T2niG1d2ps+G8+YejJtzVz2GVxNft2j99PMSBGJhiISDWmIjG5ioYOETrHo5IdH3PCZKswjkbpFG+zPj7luaCv6jY0iEg1FJBrGP7tMf8WVLh2owjp8ovsI6wFceQiSK7Q+0sxIEYmGIhINaYjsJL87YJcgWrrb5Y4ZTHOL3xJtBg1w6lXuP4pINBSRaCgi0TD6yRBh8tMl/wo9OOwJxhjd/YCVn1on0sxIEYmGIhINaYhMC+yVydbdx/kvuEApzYwUkWgoItGQhsh0FsXdI+5id6H+T0qdZkaKSDQUkWhIQ+QXBBs58NVqck8AAAAASUVORK5CYII=;" vertex="1" parent="1">
          <mxGeometry x="-701" y="330" width="200" height="200" as="geometry" />
        </mxCell>
        <mxCell id="LiQD6WQA2YHTvC3KKHP3-124" value="Input OCT (24 x 24)" style="text;html=1;align=center;verticalAlign=middle;whiteSpace=wrap;rounded=0;fontSize=25;fontStyle=1" vertex="1" parent="1">
          <mxGeometry x="-716" y="275" width="230" height="30" as="geometry" />
        </mxCell>
        <mxCell id="LiQD6WQA2YHTvC3KKHP3-126" value="Data augmentation" style="text;html=1;align=center;verticalAlign=middle;whiteSpace=wrap;rounded=0;fontSize=25;fontStyle=1" vertex="1" parent="1">
          <mxGeometry x="-400" y="275" width="230" height="30" as="geometry" />
        </mxCell>
        <mxCell id="LiQD6WQA2YHTvC3KKHP3-131" style="edgeStyle=orthogonalEdgeStyle;rounded=0;orthogonalLoop=1;jettySize=auto;html=1;entryX=0;entryY=0.5;entryDx=0;entryDy=0;strokeWidth=5;" edge="1" parent="1" source="LiQD6WQA2YHTvC3KKHP3-128" target="LiQD6WQA2YHTvC3KKHP3-117">
          <mxGeometry relative="1" as="geometry" />
        </mxCell>
        <mxCell id="LiQD6WQA2YHTvC3KKHP3-132" style="edgeStyle=orthogonalEdgeStyle;rounded=0;orthogonalLoop=1;jettySize=auto;html=1;entryX=0;entryY=0.5;entryDx=0;entryDy=0;strokeWidth=5;" edge="1" parent="1" source="LiQD6WQA2YHTvC3KKHP3-128" target="LiQD6WQA2YHTvC3KKHP3-118">
          <mxGeometry relative="1" as="geometry">
            <Array as="points">
              <mxPoint x="-140" y="440" />
              <mxPoint x="-140" y="280" />
            </Array>
          </mxGeometry>
        </mxCell>
        <mxCell id="LiQD6WQA2YHTvC3KKHP3-128" value="" style="shape=image;verticalLabelPosition=bottom;labelBackgroundColor=default;verticalAlign=top;aspect=fixed;imageAspect=0;image=data:image/png,iVBORw0KGgoAAAANSUhEUgAAAcIAAAHCCAYAAAB8GMlFAAAAOXRFWHRTb2Z0d2FyZQBNYXRwbG90bGliIHZlcnNpb24zLjkuMiwgaHR0cHM6Ly9tYXRwbG90bGliLm9yZy8hTgPZAAAACXBIWXMAAA9hAAAPYQGoP6dpAACXY0lEQVR4nO29a28jPdIkSrvdzyxmF/v/f+iZd4F5uu3zYZA96XBEXlgsqSQzAEEqXpMsMiOTZJVexhgf4xvj5eXly7V9WLi63jgfu783xhjj3//+9/j9+/e9xdh4IrzdW4Crw5TvVsIbG9fANkI3EB8fx/y5l/GNPULm4VU8Qcy7cS52X294HFV6G4+Pj4+PT+PAfls4jhEfz/BtPcIjynUr5o2N+2HPv40x/jMOGBni+KgYTt+WCDc2NjY2HgtIfBVPkIUjXteLurGxsbGxcV9UCNDwhwj3BvTGxsbGxnfE9gg3NjY2Nr41vuwRfhevcHvAGxsbGxtj7MMyFOxxiY2NjY2N58QfIjSF/12f0fHPB0ZEuIlxY2Nj47nwySP87mSosMlvY2PjEcF016Po95nnAWfxrfcINzY2Np4V0TmIK5Nh5fzGavnpHuEmiY2NjY3nBb6V5RGAMq9sw6c9wkfsnFlsst/Y2HhEHD3x/gzvSzbZX19fKWd1eezLYZnvimcYHBsbGxvfFUfOuHzxCN/f39dJ9mBQ/z4RXW/k+C6rDBsbG4+Jb3tYBrGfHdzY2Ni4Ns7avttEuHE69pja2LgPHvHU6Bi5zrjJqdGNjY2NjceGOlRzdRI0qOcIq3uBHe/xzTJ8t1OjCPVmmY2NjY17oqOTVqU7mwey+qvxSk48VZq1Z3uEDpsENzY2HhVV/XVvEqzKcUvQV6x9R3zntm9sbDwnHnVplMntn2o4fY9wE8LGxsbG8+LeW2BHVt6Y7CveOLOXRjc2NjYeDMpjWr2XeAZWvhnHCM+/Yebj46NNhpsINzY2Nh4IZ59leIRVQSO6iodYwSbCjY2NjSdERGhX3iesEPF+jnBjY2Njo4RnOixz0/8j3NjY2LglKg9Gb2yciVf7sQfbxsbGxsZ3xLf9P8KNjY01iF7lFemTqq7BV2vNynMUlTeUbDwmXvMkGxsbGxsbz4v9QP3GxsYlgB5X17O7xWMFvvwreYjsb+RYf9gjB4gVjyA8MrZHuLGxMY39ft5rovLS6uzefaf7uk+NbmxshJglO3/uIPKeVJyFn0W2nTK/k3f0HbGJcGNjI8Qzewb3eHh7Yw5nLtduItzY2LgE2D4Vi8dw9BjP9B6jPUzv2VYU9qyXra793mCWH9uB6J7U7SKTUcXj/wuqMdLFJsKNjY3LICPDKlYq8Oo/onehDq5Echz9Q9tKvlv8Ke/q+9PtS8Qmwo2NjUNQCihTqNVTl2fuFe6l0Y0xNhFubGwswCO+0/KZ9z7H0I9PbHzFJsKNjY27wu+rMUV9pf/YuyKxsL1B9niE/9uiqB23XCa9CjYRbmxs3B3RIxRjXIMMr0iChkq7O6cuv9sD9ZsINzY2ng5VYqiWdaW3yGysxybCjY0NiUfcR+uexMywCfD5sYlwY+Ob4MgbYjw2MWw8G/a7Rjc2vgGOPnqw3ym68czYHuHGU6Pyto1b4JZ7TDP/2nBG2o2vqLz1ZffxPFTfZc+6biLceHpcQbGc9XYSVs+K5c9VaY/iu3mi36mtK+EfC2EnjbNTsJsINx4KXUVxJcVyj+fcuvUrhZE9W1Y5bh+95/Ll5WW8v79/Se+J8Gj/Re/pjMJ83EpDpiKPj2NGwXczFBDqHuJYsneUIizdJsKNh8MjT/x7yz5DlLd6v2VENKv67Uj7qw/7d8iyapwohd8JfzbgfUFvsPIMqqXbRLix8aToKv3uQ+v3OD0aeUXKa/LpouuzcdQjrZb9DEQ4s7qA8egZstPP5iluItzYeGJ0lO3qV2uduZTIFL+KvxIqy58bMbKVA7b0nnnzmwg3LoUzluGuolxueWq0EzezB8feV1nJ7/M92vOIbCnXfrM0Uf5KepbuEcj+HsiMO0We7+/v4+XlZRPhxvVwxgS/t9K4tdKf9QSztGP098Cy/b+rQLUZiW7VPmbXA4z2BLv1elz9viDUf1bO/Jnw3iPc2PgGqChObzWzE3fRstIjKdHqwRQFpmi7Hu7qFY+Zwz9XRPUPmVm6qkfOsPcINzaeHF0PkC2/3YsEr7hfpk4ldvKvbFOX2DNPtkpGq4Evm4hIMHp0JyPPqD2bCDceDiut5lvi3nKovcDooEnFQ6weslGelEqDnuoVgGRoiBRxVl41zZX64Wo42i+bCDceDo+oDK4gc0R21XzV03pRWR0v80zlP1tuxTNcLXPUD1cYW1dGxVPcRLjx9LiKorjlfhpTnJlnUVkiYx7irfpXyW/XM57TrcfGzJ7ezN7mVcb8DDp7rdWDM6w/Pj4+9ptlNjaeFdHkz0iisv+nlgdvASQ9lOEsz6m6/HsUKw7TPMMSajb+2DjF8Eo/WPwmwgdD5VTbxkYHmSf1TOPqFqcso2XirP4j8d8RkdFTNfrG2ET4kHh2ZbVxe0Re1hjfZ3xl+0mVPNlrv7p1b2hUvP/onm6P8OLoLu+cMYm+i/L7bsjuK8YffYBcvfk/A9v729iIwPZKK+NmE+GF0Z34KxXFJsHHBzvSXzlcsOL0J9aXjU31H3Kq3Cugsp/6SHi2VYC9NPrEmFm62fi+6JBVFergyBmPDNj3FYlwjF6brR1XnKuz/XvFtnSwl0YfGJsMNyqY8diOkGKn3OoYrhx6uAeOPAZxVTJEPJvHG2ET4QmYeeeguu5anEflqpbVwXeYSI+EbHkUcct9aSx/pu7qf9l1ZZlNf4sH7lWZ1Xpm5+hKnXNPbCJcjCM3/ojCOWNArpisjzIRvjtW/aMC5lN7hBUPURHhkXE5+w8FqhyVRv1jxdle1oynesRweJb5vYlw41SsOPBztWWxWVyhHZUDNIaMzDCdirP87EAO/nvDvV78PIMOsfgl3quRx5H9wSu2ZwabCDdOx1FldmVl+EiYOdhS9aAqz2p14h4F3T1QFT+7p7oKFa+X5cF7+KikuInwATEzaDc2FFa9Lu2sZ1k7irZzKKe6jFjZ4zuy1Or7n3lYuER8ZKukozu6S8LMQ6x4zVfQZ5sINzY2Tnt3aOb5ROFqn01h5mRqZSk+U+73UOQr71PUtx0j5Mgy6b29yk2EF4U/NbrisMwMtpf5vPD3Vv02VB4HOPMRh0dcPq3uw25cA5sIL4yzrfMIe+I+L9S9nTnm7wnwyOnKavgjYJPg42ET4YPhOxxl3liD6t7P7EEPtm91K+K6ylivLotenRyPnBx9BmwifEBcYXN543uj89yfxwoP8SpjPVoyjvYUb/WA/Wp0H7uJ0lwNmwg3Nr4ZUDkdeaDa7w+euU9oqD6gH7VpRsYjz8Pekvi6p0sNZ7xw45GeM9xEuLHxjcEeYh+j9gaUynLoSg9xhgSv8IB+5ZGCe7xpZkXdEeE/CgmO4YhQPcOycT1cYXJvbMwgIjSFW72erItn2Vd7lnYcwSeP8GoDbeMrNgluPCqY91A9uHNVnTTjcV3R4egaJZbnau2YBV0a/e7KddVSwSqsXla59f19lsny3aCeE2TXPlzhiBLdB8Tq6D6DPMbuyy9EuEnw2gPiVu/2WzUOrt6fGzHYW1TU4xNM8WYHRSrj4wwSfHY91zm89IxztHt/92GZjY0Hwa2Ud/f0J6Y/S86jL7ZWnq2Kz3BrMq14erMnd1e3OXtl3mpkz7QquU2mTYQbGw+CGQU382jESgVf3QNUqCrPyvOIGendgsyPovIoy8oyPdiLytm2zRX2RJkRhPAybSIErJgAM8s9lQGWxXVfDLyxMQO2N2jfVS8t+/cHRDe9rwt/PxsyD3cWK1+gvdq4igy46n33cZsICW41eCrWcDUNe5bqmSf/xn0R7ROOEe8Ndh927/6tD5Mry//o6C7rVss8QobVZ0RZ3ll0HQCL388RbpyOFZPzCgrsCjLcEl65Roq2GlZZRlNyMHTzRp7rI95bZoxU4hi6pPRsPPGJCDc2VuOZSPAKctwSigQz4ltJgipP5nniigiS4NW9xKpTsmLPsLsP+2wkOMZ+fOILbnUs+4ilVl1iOFrvrfZLNx4HGaGoMVPdy2aYWUpVJBjl7+x1ng3fBmWMsL6P7o+Vi4jamnmKkdGj7vlqVPYGM8+Wvlnmu+Nqzyh1FUeGo8sl3bo2GT4XZvejlFfn0XmzTEWBV0nQh51NhDOPgUQGR0SKVTKq3AtMq06R+jl/q/l/dKl7H5Z5MNzyTfYb10L3Ps969TMEly2dHpVJlZXJpb6rHuPVUfHAZ73u77A/aG3cRPiAWO0hbjwnOmPjyDtsmQelPLkuSVbfScpkYvmUt/eI8yhqS2W50FD1FG/t5d0Smwg3NjYocImNfVSeM2WqAPfYnh3VtjISm9kjrMhzxjOEvvzsd6fuTYQbGxshqvts9yDBqrL9LmRYuQe3OiOgyLB6z6I9ysqScAebCDc2Ng4hWhpVmNnrXvEvK0rWGUK/x2vDKl45pvc4859qvBd+pcMylXG1iXBjY2Mpugc1FJhiXSVLRHxX9h47Xh+mW0WCFY/uyF9uzWDWC94v3d7Y2PgDRgxnL3V2cFSOq7TjDOBp2Nn792wHYKp4eXnZRLix8d2hlgqvQoSV/aXqu0afFdWDTAyd5zqfDdbmTYQn4AoTb/b01MbzYNWhCDwsU/U6omVNRW7dV7FV2jizJ3il+RJ5euweYPxRdE9/nv3C/wrRV/d899LoSbinFT27Tr6xkaFLgpWyPDJle/TVYJ09wU67jr4PlJURGRbZEnZGADMPzlfvSWfPMEKFeCPDpeoR7/8j3HgYfGfy7igChVstbSlyjB6Sx/xdUnn2ZTtDhQBZeOVeMHynfjVsItw4Hd+ZzM5E19M4Uw6mfLv/apDl+Y4kaIhID69nPfZnfnOMgvXPJkKCR1TcnT2OW7fvu0yqR4VaGrznMj/iisr5VntmGcFFJNjxAM+612ftGVZ0XnWv9HJEeLTDrvbPEbdAtKdQTTubLsPVlNdGDLbfdO85cWVPcGaJembPUO2BRcQ4K2sm1+yeIkvLUMm/Wuddjgg3Nlbj3orccNQrODNP5X/nuh6HIrBoz7Cyn6jSRukyoqgQCeIIKaOHW1X+GQGwJVOF7ITuLT1ERv4zS+sYhvdV1bmJcOOpcaXlvaM4iwwrj09kXkiU94hCq8gX5bW4SCFWPapZ2SK5KsuGVdmydiiyyUgQPb2Vp0mzfCvIMIrfj088CTrLV89CCBtrUdlruSe8wup4jLfAkb6q7p0pDzzy0jvGSiSf1ZOlydIdrQdR8YwrclncJsLFuKcSqS5TbWwglJd0lXHD5HhkEjR0nutTXvksER75D0rLP7PiMFMP5q/qumpdmwg3TsVZyuLZscLDv8fjEz6s+uoutjTXqRvLzZY+MV+2dHoUyouNli0x/wpP8BbLvbOIPP3K/VRx1TmyiXDjdKxYnvmOOEqG9yJC/7ur9Lv1Ypm474XpUD52zfIcQXQ4pLoPFin4qD2ddtzrOcIOCUb5MKy6orH/hmlj44kxq8wzL6OjZJlSVR7iVTzcWyDymI88PlEhgtnnBqt7his8zyOrBF28vOx/n9jYeFqsJEIss0KGkRfYWRb0v5+BDJUnG6Vn3nZ1ybRTVycdy9chQTUGbk2CY+yl0Y2NjQdE13vs7AlWl9Q66L40nKVTnmB3r1DJ1vXkqsvyzOONPFWVL4ubWeLee4QbGxsPhaMerrrGss8gQoaOB9UhvioRrnoekD1neKY3qWRR7a20bxPhjXCLibUaK2R+hqWsWXQtWow/kuZq/b7H0jXwLMvLq7CXRhfhqBXz7NgTT6MyHmbJ9Er9fmTcX6UNjwK17BvtyX1X+P7YRLhxOu5tANy7/nvJcCvFpw5srK67eviG5evsCd5qaXSM2t7hkWVRZhBly6Ur9woxLUuf1dl5oL67R2jYRLhxaVyBxFbhnm0520PsHtA4Us9Mni4RrsTR/TLsV0Xc3T3CrF4Wv6I9R/Nm7ercy6c9LHPvJaF7K7uNjUeAX7Lz1xnYQ9+Z15MdoDibCGcPj3h5kAT99RFgP66Q+aiHWJGhEl41BJY+UH8lJXxvWe69DLaxcWXMkk70lhql0NV1hyhXYPXjE/561hOP+rHiSVW9re5SaBWV+1Ztx9N5hBsbV0BlomdpOktACpnl3fmbm9mlt0o7lVyMsLBN1VeDKcXZXXpbhSOPT0TpMA+rl+XLXofn+1+luQoqhOjbsYlwY+MkzBBANb6irKvvsMzSZXtQZ5CGIi1F7BXPEMOi37daYZk5LKMQeY5R/Ss8w3uTYdcTxDSbCA+icwMeaflypaz3niQb18JRz7QC5VEygugQxwyOlockGBkjijSZEdE5TWrw5Ji9IabT7u7SccVw6dzTTYQLsGJ56IrYZLhxFmaW1qI8lWXPKM2ZRNhF9LhAxTuPiGH1Cc5KHLYL083IlBFhx8Pf/z6xcTPcU7ncW7EZ7iEHUzpn1RMp4cryK0PmKaCHospTnuC9MUsKTNGrJVUr18KyvcAZZESTpcnyYl2qrBmD5uVlH5bZuAFWKJzZiXrL/Z4Mt5bjHiQ4U293udPyqHIr2xX3uhfZg+UsLiK4bHyrJVB1wIjJWUG2XMpQeddpxdOvyJXFbyLc2DgJR5RtdbJXLPErYMXS46p81SXT1Zg1CBTpVZZMsdyKd1ZNk3mz0VJoVn4FlftWXa7dRLixcRKq1qiKq+TvLCneCytJparYonwZEV5pFcGgiE6RH8tf9aAzrHrOkOWpylX1FKuG4ibCjY2Nm+IIyXQIHj2iqmK9FxFGRFUhu1VQy6Os3isYXLMevU+ziXBjY+PmWHVwolsP8wSjJccr4JYk6OvMoA4q3QOZJ5i1ZxPhRbFiwM9Yz1H9R5c6roaz2tO1RrtLQN24M+6D2p/qylapx//uLp9V9gI7sh/BkT1ORtTZvuBq4oz29o48XzizZ9gxXLL4/fjExXGrJaRKfd1J9QgkeFZ7on2ajhyVCZ7hTBJUxtMKuaN6Z9MzeW9JhLPP8CmCi+TvEuGRd6GetWeoZIvGHruu9MMmwhOwwps6OhlX1HdrGRiOnjBbZRWf0Re3WOZCz3BmKStSrMoT6cgVIfMAo/iszyOyWH1vqq8iq6S5JTqencWxe4TjzrcTx6iS4czHfzYRLsYZlvAsjtR3lEBu3VaFlctDK42Z1ctWmRxH93OQ7HxY5J1kZXVlOJI+8pxWyKcw8+zglcjQsMLrU8+CKgPgFiQ4xvYINzZOQbZ0U4lbQaTZkflVD7tj2jOMgJn2RktknXt0FF2FrrzUW8josZqAon7I6j86vqLyNxFufFt0lcrRwzJdMqx4VhUocqiQYNdjqniFFYWuXprdgfIAo/LOIJqO8s/epnL2KkK29LyqfLy/2TJpZrRE91mFnfIc4ZHN0Cvh6GS7pyweqw/LPAJmvZdOnqoHVSm/kzZLFy2rrVxyU0uLneXRTt9g2OxD16uNkA6qS6MdHFkN6JQX1ZOdAmVlKALM6n6opdErrGuvGMBnK9RquUfLnjkQkaU5q/6jyLyUlfWsTNtRwpkXNka8FLqCBJWlvZoIEUcOTXXH9hnGrTpEouTICGJ2NSAqsxK+6vRn5hn6dGeT4Bh7aXTj4riSt12ZkB0CWGF4ZJ4TKhJ2PUbstbDyM1KckZvBt4PlqXiI2T251ZJjdWk0S3NPHCWmKgGyPFF8dt+zMjYRbpyGK01ghiuQYRQ2owBUHnZ8P1LCmYc0uyxabZvKN4PMk+70o8eMtzXT/8+CyOjqPmxfHZ8sPSt/E+FiVJav7i3Lvcu6JVb3+5Gl0Wre1cuKlq/6LFtUhu/PWSKZ7cMj5NQxNjr3qduXihQxnpFFdSx3lpEzIqqU28mb1Xuv7bVNhAvhByyLuyWZrKjr0cjv7H5f7cV05a0q7s6Bkg66nmFUzmz9hq6yr/Z1V7ajxJQtU6OsmefTPUzkybwzVzp7hfgMa8UzzMJXwcrfRLhBcVRBjHGNw1MRum3qLoUd8QA7nkpWz5HHJ6I45RlW81VQ8fCUQmX34RaysXJn23FVHFlZiMrJjDpLk80P/K36cy+NXhwrJsKRZZuZ+CN13wNntqdDbpmVH+Vn4dlbZKpKLPOkZrzBqB0Vecb4+pou/+3jsa7MA5xZPThChspDvDoJHgEzVOzax3tg2sqc2US4cQmsnMxHlPYqWTplVAlvtvwsT6RM1GnSrJ7VXtXR9jIyzGTpKM+uPBmq+7Pd+1Kpt5K+c89W7hX6ss989EfBZN1EuHEaVnm11UnaJcKzLO8uEXY9wCw+C5/xbiteX8cjXEn8Hrgk2vEAzxoPioyOvPigS4JRviME2d0rxHKVZ8jqP4MMNxE+AI5MzFllNxt/tP6o3kdYZr0FrrZkli1HRfk6dfjfFW8k8hDvgVkPaaa8lcD7y054qtUHLEeh4rFWH6FQcqvyfd2bCG+M6iCetZpnsZoIx3iMfcIr4qhne6t+V57iGcvAvr7ZvGfg1uR6dn0VQmGY2ds8sh+aGWHZMriXYYwx3n7+/Hk5S/PRMGONPDtWtbczWbqexhnEPkMCkaU7Wx+zotG6V5a9LxOXGTF8FjPLaT5f5nWgp1Gdk9vYm0PVW0fcu//+LI3+4x//+BSwUYPah9hEeL0lKHU/unJW0kflVsfGWe1QikhZz7MeX1b/0fwz+ar93qnj3kr8yngEfedlfHsEgW+B2YmpLO4jdRyxujsPGnfqO8Mrq6JKQCqsG+fRfbarUmeUNiLFLL9SzB8fH38+TCYcM6+vr+Pl5WX8+PFjvLy8/Ln23/bx4RWSrKTpPmjt24Dx+JvJU0l3BVSJOiL+yr3BMET1dKgfn+/v77SM19fXKYOi63xk/fY0e4QrBnFX0XVuxtFB3MGKt25gmhmsaMcREux6ZpEcqp5KuSrf6+trmq7TjowIMxi5GQG+vb19Ii4fP0OEHY8yehaShTNCn71fV0SlbzGtKqOTr6ob0NiKlknxYJO/j2ycfnx8fCHSitwVItzPER7AI02gWyGyHFV8lP4Z0bXGs7xKaUX7f9HJv8zIO2oQdcroGBQenROLXW9wdnxG+RhRoIfb8XgiI4DFRfkq9yB7JMLawgwVRPQoRUbgUbkVfFkafXZltHEeMu8kGqiV9I82NjPrumLFR3EV7yBKp+qJiHCWEFW53TJm6lyVboz+GOySIIvz8kVjRqVj9XY9QbY6E8mLiB6BMI9P5at4wvjdWcUZ48k8wiMWwZke3oy1f7S+lWVVlcmRujOPMsp31JPqytVNu8KTYnGR4sDf3jK3OF82UzhHvMAOKvd+pm9vOefOQua9dcZGJ74jU3ee4lIokydaGmdlVmRlkEuj3QGy8sHpo/mvQITM4jlzUK7AEfm66apydN6KscqTOorVRIh5uySFijM6mKC8vTP6avaerJyjj0CEkYcX3a8ZnTNDKJ6oOo9I4F7ix8fHp/3y2eVtFj5NhBvn4VYKoGOcVIl4RnHcUtlU+7arBLt92UmbyVwhvszDMyXDlIs6gIDKtNoupVxZOZGnw1B9i0km0yOieh/8feuOxUqYoUNUUZrK/nUX3byWfhPhjTDrnZxtvR71WKN8t0Knb8/sz45HGFnzLF8lvarb9l/UYxTstOUqpVrxWDBMyankOLJ09miIxljnnq2e8x3ixD1Bdip0FjbOO+nH2ETYRmbVst/PNhlvhe6gviIya37WA1S/o1Oh0W9WJsp/ZCwrJR2RP7anomyjslbAj8kZD7VSvgqPxkRGgpmBskLGKH1m1Ky8VzNlbSJsIFIKGOfDvwsRKiWm4hFMIaOX8EioekcsvusxzshjsKVTpVBnvUOUO/MEs/JXtXfW0/TpGBl2Tkp3T1Wr/se+xWdTfZoOjniUDNGzgrhfaOVHzw9GqwAz2ETYxFlW5qr6zk4flRMphapFH5XfKXeVAXLUA4rKO+IBZrJ1PENff4XwMjKuENusZxjJEqXDPI9kVHU8wZVjftboQeA+dcVD9OFqVWBmr1JhE+GNUFUI3XhEd4JXyq/Uv7odHVm6RHiGMYPldj26bnp2PSMnq6+iWL33kSnpLK6qxFfet7PGwGpUPcHK/erW282v6vcenwpD8lVL3dV2VNPtU6MbJWTWfyXfivSrDkTMEnLFY72nB6jSVD1DJR8jrEymDqEpsq/u+VUfnFb5srzRuDvbq6waLJVyjhD/inp8HDvJzMYtkiMrM0JndWAT4cYXdD2sKF8nfgZdK3iVZ1op92wP8Gg7VHnq3aEd5cvKNS9SlZeVveq+dffnMJ9PO0uGs21RHmB0b84kwopxl+0Jqj1CLH+M+ku6uydH9yvWHDpudzTgIuU3W+etcJaM2WRc/TxYlyAzuVSeSO5b3Fv0oLJ49AZX7rNkcmaeYIUIlbyznuGVoQylKFwRyKp+mTXO2DiN8voDXJkMiO5Y+Pj4OE6EjzbwlLzstJXKXx2Mvr4j1tqsBb4i/RFrsmItrkC3X8/0LK6I7P7ayTzmbaw0girejA/3HoN9Hk3fHMVM350x16rlMiL288Q/0xrlQ0/xLMg9wm4HrhLy6I07kn9F3migHCWTM+/JamV3RI4IM3uEq63gypLaVRQ1KpvMM/RhmXehwioyKSU+Rm6Mvry8fHkV14z+OUKot/KgreyI3CISPCoXjp1oLGTp/FhUnp5f8qz08YqVGD8XDhNhJlQH9yKzo+gMVpU/K/ssdKy8TjkzY6LquUT1VsrrTJQuCaICuAc8sbB9lyhfR+lW5Ij6yO9F+mu2h4T7SSq+ikfw5iOCs9+4n4t9OgP1iJK6n5gOw32ZbE+QxbHyK+Gz2IdlClDKraKEq8qnUncFqwfIEaXXia+e8OqEV+WoKsWjBsPZxOhJRIUhsWfjedbDqChxDPdEiM+c2Yc9YN0lQ9WWmX3qMz3ErA/tz5FZWuZdd8Z5RIYYjmnGGF889+yUKJbDllCrJ30xrYIvYxNhAmXlV5QDG7xZ+Sz+TBwl6mq6SjkziqhijGTpKwdNqn0QxZ15L01peOXhlVLkGTKCwuvuOIg+6p/tGRGO8dlTMAUbeRYIjGN1sHTYV7f2IlVf+ThPhHYdEeGRNlSJENNlHiDzCPEeZaszTNYOlhDhigl+tsKv1DMrgyLLFWXfGqv6Z8aDWImqgVEhuVnl0Zm4K8AseRWXjVGl1I4SOlOkGdl6pegP9kREWPGMq8TADAg1blatLvg0FeOi049RGyuyeCDhqvo71x3Pz2Mmn+U5TISPouDHyL2HmbYoK/qRoSZR1q6j8bPoytu9R0fGxRVgcmTLUz6cKdUVc4R90OtRBFX1+NCTwHC1J6XIlHkqaOR0jJ1qP/r+ifYCsQ/t0yX6yIiqzjFGhL58M2RMPnXty/PfVg7z5mcMT6t3L41OILK6snyVsJk0hhnvY4XFrwZ/tdwjXleX1LC9Wf2q/JX7Qxlxd8vKlnsrsnSsatWPs54M1s32mVS7POFFfaHKQTKM7v/sXOmmrfQbI8yKB4jkXpW5SoTYjqjc7NrCOn/bVPF29wP1CaIbnQ0cNoiz8qNyzgAjhhmF3OmPlcjkrfZ5lexU/Ey/KVKu5ldpZxU0ylWRR3lQHcWNHiGC7RNhfMXzY9fo7bHyMI6ls35fuX/l+4T1maXx4T9+/Eg9wkjOjgHFxoh6BMbSZZ6g5c+IDvubGUL2uzK36eMTj0qGZxJGtf6qhYRpOmWuRLX8rgxnp6+UV5m81b2RIx7WrRHJxLw3NWYx7mhbq94Ny2ceoXqERhFhh6iyZeOVKwAVVIwJJEIMZ4YK0/HVecDkU9dR/uw6erMMM1xYWZ25TZdGOzd4FWkeHVTVN8OshprcKozlvzoRztZfnSRjHBtHkQKtpq3U4dGx/O9tWKr7UCFCVU63fq+k2X6Wv0b4/lPzXHl7LMw8kCjPFZD1VRT/48ePMQbfI2XI0mWenv2OiKvqqUe/O3h5qS2hvryQB+pnKrv34FnhfVQ9toqHNyPTVcE8gzPr6o6lqucX5VeoWJSznuK9xwfKfpbnF8UxrybK45fQWBq/J6iIzZTjiv5H73r1Pe14hMw7ZG335NKVQ8V102XXqzzvyj2xui7z+MSt0LV2MX2VCB8Z1cGMcTiYu5MtqyPLG8mTpUcwkmBh1YmWybQCFU/Py4HX1XKqskRzB70Y29/yyrprsCpP4/39/ZMHiHlm9xDZuKj2TQXe27O+qXiCkWfNiFAtK3t5O/qR1WvflVOj3lhRY8HyZZ58da5/OSzjBd/IkVm/2SA5QzkeKa9rKNwb3f5j6dl4r6Sp1ndvRIRo32qcdvfNsvqrXo0RjSebbPtDEZkRBrtWZWT3/6jerIyLWU8wmsPKS/byewLK5GXPEUbtjTxBlk71s5dZ3atqH48x9qnRFWDWdWZ1s7yq7LPBFBVLk8mC5axa4sjqzCZflr76H2eIytLpPZAZMqhkKvvrVQMiyqsUNnqGKKdXbJU+Ne/PE5/fF8Rr3Ds8G9V2YN/YNeszdmoUES0Zz+yRduee8tjH+HpKFElbyTU7dzH/4cMyY2zyNJzh3c3IsNoyXYFb9011kkbWY+QNPcKYr1rhLOzIsqiSITIW0XDEvOghZrL5ZTbfHq9w8RTqGft8DB0ixO+qN5gZ12xp1IdXPf3qHIvGojdOULasn47cM9/uy/wN08Z5uIJnciYRdjzYjhxHrc0rgJEHU0Ys7Ih3lJFd5NUwuRgxR0qYKVer0zxBv8/0/v7+6X5XvCe8Xm2AZp6z8gR9PzI5GdS+aNaG6lyqGmXqGokVyRvl9fe2gjesYAb39oIMK+VQN+5qyDyVTP6rty9Dd3mmmoYp3o6lyvJU0FEsmWcXjeEqoShEHqMi2uqHtdEUnifn6N4bsWF6/FaKVoUxdHVol0AyY0KFM11Q8fgUuRxth//G8OyazT28T1GaSKYxFuwRXkWRdj2OI0ryajgq5yO3c8bzm23vjIfY8awqz2r5sMyzY+Si0nXB2sUUc+a5/Pjx48+JSPvO2qjiUA5PhugheCWKnqGFryQ/zFvpc9Zv/vRo1q8om9pzY55gZ/83A5bJ6sr2DNVSLjN0fNrqnP20NNqdEI++bOSRWSaVPGditq5bycgU66p9Jl/GKtLPLEZlIM4YjkrmioeZKc2I0FRcxYtjMmZ5FAkjIWdeDpbhr9lhGiUX1mekqOJ9WLT3pEgyI08mY5am2lcsj1odUm2zPCqelZe1w5fly46I8OPjv++VVZ4tPnah2uHbrdrz8UEOyzw7GVaVig9jSqRq1c2io6xmyorSduthyssPwhkjI6tnRX6T7RYnBRkqJJx5PhHZqbGK5a16K5MnHO+1oPKO9rW8bNlbZnxaFu6VJN7nzDO078qeGaav9lOGqI/UkmhUX4UYMvmRYCpEyPZrGSlm19g3Ppx5kJX79vv37zHGwQfqzySCjXlc5b5UDIuz6lFpIgNjZimsoggqZc7EVQyMyHOIrqvevPI6GBEzz4uRZEVGPCzBiN7ClWGmZFGIxkB39aNy7/CgDCO+jASzOjppsI2s3sq+YnZtRgmSJ5bvSRKNJvYP96w9lu5p9gg3/oPu/TiDmJQcqz06C4ss4Up4RnKodFU5R+dORNYsLyp/pVQw3JSGio+UTwTlCbJTjio8eo4QH4qP+svLrkgYT4laHHqCivR8XZ17r+4VgvUn6ztFihHpd2S1NlbA+sIIp7Mn6O8DloXfFY9RyWrf3/aB+spAXFX2kXRXNzSYJV5JezZmCT5Sqioe07DyKpZy1RupKDVGlNV45t1UlnGZfPi78lFlK8+P1e/TKiJk6bEOVt4sIk9K9WPkCbJyqzJE9bL4CqGoPN54MNnxGU+1J8geA2FlZh6japv0CLsn465CnKuUno/rDCw1SKvlV5VgVg6zYFcR0Ir+mi2/W04kD4ubXcJchY68qn1qTOGyUeQ5WHql3Aysv7ziVnuDfs+L7X+x5wj9mEaCY7JYXXgwxhSf5fEnRFn6TLlWDAXWhx0dwU7hMlKs7POy8cHGRgTWzshz879ZP/r+9H1q98b28LAO5QkyjzFry8fHhf6G6ZGxkmyeFSv6Z8bAqMZHlm+VBBiO7h2xMJWmmpeRapQvai/be2P1KeI1ZcwOy2RyRoYDLu+ycpD0qn2IZVV14Iyx3NkbzO6BkiXL7xGRGqbB+sbQRhbu6TEP0cvG9gDVtkbmEY4h/pi3g5lnqzbOQ0dhMJxxL4/I4/NEComl6zyXp+I6pHcUFUWsCIXJ5fcCo/xZeypznHktlT1Du7bnCdneTpWUMczvS/k3x3gF6JUsOz28ej5U+pzdH2VMVMlR5fP3JZMPPXMWjmHe04s8Pk9qkYdoUHuAzHNU8GmX/A3TIwGtwdkyzlKGvo57QFm4HfLAuGpbVhJk1eI2dPb4VNkznmIlbdXKZ2krXoJSepkMaj8Nv6vKu0oQGbzSVfudrP1nz+uq4VEhvhm5O/3PylTLkUhirF6/DD0G9/h8POZje4VWbzRWs0ejrP43bzVHbuQzYYViWUGoGZhldwt06mFyMfKYKaci1yzRdvuz0qbu/cnI135nY9CQ7QWy8CPjiikx/2EnRP0bUtReYaSHfJy6J75N9iYW/35RVMa+DK9crZzudYQO4WM6v3TcHcvs3vhvDMd6kASVR8jIEj3Czp6gJ1lfryJe5jkq+Lx0abRLhrdS0CuwUtZHaHdX0R01hLxyuBKqygehrM2zvL9KHCrBbjqlTL2szBvIZMVyldHI4jsEwcKy++QVsTLclMEwe81kjfqepWXlK/mjOisff1gJl9XVUqelyZwo1W58Q0x0Dyp7gOjYZfjjEWbCRriasutgVjFeER3FWcGq+9qZsKsQKZuV8lSJYoz6Pnqk6JjijE78YT9EChV/z75pB5Wq/22eGSpd7yHiP9QbTNlVng3DfvDXuEfolTr7x3Nv1FU8vmw8RYQfkaG69mCejyI73/9sP9e+EeZRYxh+MNy3T3l8Ki+bZ2oPkI2N6irnt9sjvAeqZJRZiUfKvjVWGxnddnas8zFqHk9FAVfKUeVVlGGUloVnSjeLjzxE1t5IVkXAEUEoMCWpZFCy43XUdxUnoTPmKgQXyaP21SKo/lZEiWAkg+Ur4ok8PnWtyvNp8KXbbMlU9Y83rjYRngQ12THeX3cUVJRO5bmXB1+1ameVTGdvjJWnlKrai4qUEVO6Cng0HMcMk7sCRTyqnqzfmRdgSscrH6VU7bfaI8QPs/rRG8H7F3kC1gY8sMH6C+OPEh9LXx2b2C4frvKrZXj1GIa/D0iETA70/vD9rRiOnjamw3uIHiO2p3t6NJp/Xp5NhE1UJoZSaFFZXaKsyOPTMCs4k+kR0LWGZ8piXpHyiFSZ1f7u3mc2hjKi6xBhZCRUFD3+ZukiglBtVZ5qlE4ZKyo8SquuMY7N6cg4wTDlDc14hFi2+uDjLp5Q/PN7EdFUT4ViGWgcKuJjbWJ9FS3ze734bV+xdgRs0vpBVFFOPl6FdyZdR9Yx1p4QZnJfaRxF98sQLcEw67Xbn5V5pu7VzGlQny8bc5ls1X2ZysnQyBOMPEKT1z8bqKDmDZ4S9feV/aN5ZqQgUWRzNiL8qFwGRURIlIrgcF+W3Scszzw97LvIY8Rw5fF1T436NKxfDNmpUUu75N8nrqT0VkIRT0WxsjJUPpZ/NRFWUfV0svKxjBnZZ4BGB/vG9BGUN1gtJ/MEmccSlRelY0aXSsPSz8ArwmyJrfqJ6qrImpHMGOPTMql5Oa+v/B/tVf3dax9WTTdjsDISjAg5++A8tj6bkVN5dN1ToxZXMQYq8hx+s8xsnnsjkzkjNozHCe/T4/M/GTlG6VYBy1Jr9pVyMqV9xvio9Ke3BjMCQOs1QudtSl5pRO3wv2dPgzLSYemy+OzUqPLY8ASo/0QeIHuOEOvzsrP6mdFl+4I4pm1s4LW9fUahMkez+M5cV14f87hUX+F8MA+Q/aO9j397e/vUJvQIrf/QQ/TplKzME1RepdJTrL0VD1FhL42ejIpSUr+ja+VtHbl/qwgLrchqnm79TKFguFI6RwiaTVCVjsng4xBM9ioRYtuqRIjKv0L0zIjIvMGqd8jqsvIZSeN4U4Tn24cHZ4wEM6OlQ3yYJmpndt9nkPWxilMP7mfXLy9f3yDDZOpcZ2WoU6NjxPPP4v94hJ1JuqEnAxtAbPJjPiw3Un5M+ajwmXatuO9enoqyZ/kqZas46/MxPit4H66UEbOyo6UXlpeFsf7wSsOg5FNjBwnM7+tkSpf1l5c7axtLzzw/5h2i56ieI8R+M3mzcWqeoLULvRb/3lH0CNm8U5iJjwgf0yhFXvUUO144+3g5lMfmr01W61PmKar0Kj4be37sznqEHx8H/33i0QkzG4xRXDRh1HWHCFm4IpCq3BHYvTxikVYtwk55HQJVxorPgwZER76MHCvWaKU9zDhixhKmj8YNI9wZ48WA+0WoSNmnYiD6dnqjD0mC3QtPdMoD9HnV+M/GwxlEWCk7y4f9deQTydSd55X+9OSIeSLOwXxRnehIHNojfHmZfwvFvZENxuhGonKqfNhpUlWuUgY4INRAiZRvFUzBdPJG16ug7oVS9MpDtD5TyzpqXyKyNj2xZJa9lxV/R+3MCM6TDeuPytiqwOrFk6Fvb2/U+8B9Q5QX54rJhH3o+5j1a7R/xcKyE6lsnnnlGxGHn5cV3aOUum8fa7uPZ6d1cY8QT41WPEKrQz1DyOZH9Y003oBRHh7rBzUWFD/9+vXrTz+MseDNMkcU5tXBBitTUOyaDfqVRNiReYycBJXi6WLWgjyKTLlj3Uz5d2SreHwz8dGYUtcsPxtP1aXXWaDRoWSJZFQkb3qGPVSvCAM9QbW855dRfbya/8x4UdeYl6VT/XgUqp8rHnt2H1BO1l8Yl/Up8+QqzwFiXb4cdvgJjZIx9ivWpsEGV2XAWV5Wjr9W8QZFVBUvReXL0C13JjxTEFG+CgH49Kj81KRj1qmfhD4dy+cnaYSIHNh3RmzZKVI1tlj7fb1qjHlvQ50gxTD0EjOZKmTC9gT9tVe85jlZPn+KMZsvPp71R0QUFSJUnl+kC7Bd1Y+/dzh2fLn225aW/TxAAmLExuT0Yf5eZW3112yORR41pt1EeBKUpZgRnYrHMg3RYMvSVuWP8ior0PJkStbnq6bN8jCFo0hA5cug2ta5H0zu6P5n1xHRHSFC1hbV716JKuOQycHkYuXj8raS3Stru1YeoSdIU+CVOYdEoPqDlVMhwioYCURjoPthdak6szZm7WJGgMof1W1higjxYNR+fKKJiMiyD9v7qAw8Fheto8/eUzXIusAB2CW4ah1Myfhwv3fllagPR+uz4lGrfkdZ0PLEfohOjarvaKxg+6LlL18ejsuoDyKok4nqlKg6wYjy+f5S7xtFObx34fedfDn+2tJXzzwcnR+VOYHjrSITzrtoDzDzEJUMbGXEzx1lbPj02SqMge0tVtHyCFcovzMU3dk4KnOHDDENlsPSsvgZ+ZUSjtIydPvrVmNC1cP6EsM7fdjtbyVbxYpVxM7GAvsdEacqLxpf1TEUHXzB3xVZWFvRI2QyZ8oY2zXG+LRPmOGos8CMWpamM3dZPn8PIi89GyNYfhSuriN5PXBJlS2xVoGk68O/eISRUM+MrK2RorRwtgfIrtVeoS8rU0ps8qjJXV3GzAbYUSPplmRY+aAy8HuEkZUaTSgPtT/hFbT/HbWDXfsw1m7c1/F7bqw89BwVOkTITouqZwfZdeQRYh+quaQ8P7snag9RnRrFe1+dcyYf89TYXI7ydeaSz8O88uy0aHZqlBkZ0TXGqXahZ8n6Gtvpy2FjpewRYqKZDn9URG2tECUL61hbKl81zpB5GVkele9K9zdqP0sX9XnUnxXvL0qjFJfqbzWRszFRaWvlmtWtkM2XWe8vSxe1G+XyitTkUEZJpNyxbcrIyfor0hNRPmxXBybvzMndiq5ismXXM/JX9U/Uz5FH6LH3CJuoDh5clog8QjXBLQzTjaHX7JX12hlYUduriKxkVVamHLL61T2wD56IUx6h6kN1FJ+1oTL5sM32OzsNqtJFqxNRubYflCFbOmQeodoX9OmUJ4LtNo8tmi9jfPUILcwTpL/2ZBk9SzizCsPio7ls8diWGbBToaq/o/swxvjiWbP+YP2jPMEobdR3qj+Ubpj2CDtQk/47QU1GjIusrGo5GDaGXmLzmE1TqWsGR6zFarmKQLL7oFD1FJksUf7MI/RlMYLI2tdJn+GIIRKRdMVzyfqBEYs3dNB4YQpaLcfhfZ01KpnR08kzUx8bU+w+RXuIaHwwuSL9dHS+Z/onGr/qMA6mX/LvEyvwyGQaDaxM6SjlhOXfC13C8PnOvqcVJeuvoz3CMT6/Cd8QWbFsL5HlU2HMa1QEPkb/ucGqh5jtEVaA/eo9Qdwz9J4g7hdGxOj/TUIRpScq9gaZMep7h3ifWFl4byNv0mSM4lfC6yL2Zhn7VnuIKF91BSozHKI5VfUAWVsZ2CoGK3PJc4RHJ5G32G6JbHAiFIlF8ZHlqvJhHKvraF9l+ZWcq8pnZVfKZ/2r4lU6ZnCoMYjWqE+D+aN8lXDVtqjNkbFV+YyRL3l2UDH0WLqsPRbHDtOw+2m/2XK2leOVLktvUMrdx2O9Hl09swqqL6snSFWZ/nsM7vVFbTWjJoq3cjtt7QBPo775STDj8lcFyJbeMhe6K1fUlojMIhn9QELrmg22bO+DlW+/K8uZvq0Zqvc2mwBnQSl+Fo9h6l8Xsj6/ChQxKfLAdNZO6wcLx35Riq9yatTmp1L0thRZUaZR+6MP8wYZMSrCyzxCRpAW79NFHk3UfyZjFN9B1r9e7yjPL9pD9IQUeYTY7xUP2qeP+qHarx1jLvUIZ5h4FbKJqMhhBjgoj1pszBqtWlpKuR+Viw1aFq9kOGNiVsvoEqH/XTU2bgnWnxWDIxpTUXg2FhnRZkZW1nesTtXW6N5Ec4Z9szEQ1WPhRzxCiz/TY6mWmd0TT27ecFB9p8aYak+mRxQyxwfTqvbNwN9/A/0/wtU3rTNglCeEHRcp+Jn6um1WCiZabvAKCMvCctU1A7NirW1Rf/g+7QxiBpSzex8yIyHql0r/z3orRzFTl1JSqg3q/ZD4HGGUzkONIwTOnYzMKkTH7rEiQNUfXi7l+THPhREktj/zCiuGJ4ubNTwzImQrU9EpUhwziNfXz//bqHQPEg0rp9pmf1+VQdmZZx8fH1/G/E3eNcqsh9kyjpazEp3OV2kj66tSvk3qDJmHiHWz60yObh7Mf5QIM0V7T8zOgQ6BVMKzsrryZZ5u9R5W+qFa5kz5THaMy7xCNRfP0lcVIuze/6hcXB2otD2Lw3S+nmpZs/f5k0eoEp0BVbZX0pjm6CCqLknNgg0oPBruT9BVyrNvtXywuk+qMmVpqukq+TvEqE6F3psUK0aMh9/zs3jWnuxUrArP4jMvyMd5zHj+lUcmMkXNTsGikrN2VTy5l5cX+hyhyu/riTzCisc34zFWiFB5hP7eo76yb5QBCfDj44MuJfvrlUaA140qzsubleXzXOKB+qrFcDRPhlXLpBjWKce+1dp71QpjyJZtqrIeITwVd4QIs/LvQYIK7F5iu+z7rA8esmEGmpGCAsquFDW7ju5PRoIsP5bhlXYXTB+y+pFoszIzouvKlYVbXNfA8PkiOfFeZvdIjfto3NySi+ge4RkCZIQbKXsW5tf6fXy2BKg6XpFBRHBKyTCrK5uYfhJ7OSJl0t1biJZt2ISI5MzSMZlVOSwdi0eFjfdGeQhXIMAxcmVWGVvsOvP42Bt12Dd6NTjGVFy2lKXIlqWrKmzv/eEpRwOeGFWeoIVn/3RQKYsh66PuPDZgv2A5zPND3YR7hf75Ql+uvZQcl0eV/P7eRG3r7BV2kM15rJPuEd5CcWSElIGljRS9z+fjOm3tKFVFoJWyMw+t009nIWsPmzCd8lQ+liZLx/JFcnj5bwk0MNj3GR9PUi8v3BOseECqz6O+nzFUonFSnUOq3CO678i8rMwllqcyljPjIvodlYnOSLX90T1SK2EsfiWoR3gLoCWgLA3/PYuIDI8CrS2mZPwzO0q+6iRc2RczBOXDKpMwiquWWwn38bj0p8rJ2t/p62jSKnKNiMPGjiKuSLn58ebToxfg05sS88otej0VjqOIXKN07N5Wr7Oy/LtJIw8OPV1//1BHMZ2UeYXZOKp4jAo4hvC+eE8vel6QnR7FMq0vcR/VTpLab+xPy1NBxUNcQYbYbzdbGs2EOeoh3hpd5ayIg5Fg557M9FHXE8b6VF41KZXCj8qNCCwKz/ob82dk1UE2nit5o3GgiLxKlNVDRJGh0LH4VRkqXUWmKK3Po7yVaIxW5kQ231j5R/VYlD/r346hocaXKtfA2ujLwH6veoIzbWblVXCZd42q51EMkeVTCVfoekgoU/VjVha2sVNn1jdopeKb91VZSglH4YqYfPnRhKoSmwpXhJDJeC9EpJIpdfRwkdiyb9wj9NdjjPH29vZHYX18fIzfv3/Tf21gJwRfXl7G79+/ZZsr96Iyd/B+Y7i/9p4Lm3Pq3nhlrjxBvM7SMUSe40rD3/okWq1iHqEfGwbUz3bt9w5t7KAM2MaqLldtqqJT7sPuEVbLVwNOKe0KKhYVm7jVOjqEN1uWxWUyVeVm6SpLvqofWdkrifoewDGH4WrsYF6VvvNhitGXH/UfmzuzHjD+ruSLCNbPEU+KXt5unUoOpcN8XV0lv8rAH4P/cXh2v6vzFWWt5MH02WrMSj7IcPjxiaPKHcuJ1ohnvD2Vx7+3sIJsMLE05gX6PZvMO1PhkZyVfsF9DFWeIhhsH8arvqwSmwqv1JedJo3kOwuZokcy878Vac16fviN+d7e/mMP+72f19fXP55h5PV0+0SRMIb7/d2M1Fl+3x4ka5wLHixcpUFEniNLm+XP0mdQYyV6ntB/fN2s//AUKfvO5Mv2DtVZktVY8hxh1uij3t9Ry+DI8meELmmwupkVxMJV/ZkVFfVdZsUdjVfXq4lQ1dWR7wxkdVTIMuoTFl8lDUUeXhmzeu171mDO7mGnrVHfeTmr97q7MlRBZc6fhe5YiPrYl6lWM9R2SOT5+fIUF7Gyqu1XwHLe2L9TdyurTPiM+W81OM7AisFlyJYyI6CFxiw2lLnbPnbN2pGlmyG8iucXte8W5MfQrRcJyj7Ko7M5XDkRaOnZs2ReKeGJS/v4lRTmDTCvrnNIp0KCar+L9TOefqx4g+rah6v0UXlZOCsjC4/S4T3AU6E+nJ0qRXnt3tspUU9suA0SjXkkxAo/GNSKoXIoIvg8f/6GaXbtvKNMZ5HJpiyOiHiiCafCWTpFEFEaJb+vl6XBcBx8aMkrC81fMxln0CWkavqo76JyqvJdEaqdeJ2NvSqR+EMmWNYY/OCTuq9ZW1j40fvXLesofF9VwlfVmYHpkUwnReFYLuoV1Ek+nske9Y3Kp/o5a3sFvpw/RGgWoJ2ymiksgmL8yKrycSodO92G12yppzswmDWNFlYUrhR6tEeRWZNmpZmFxtrrrTUfHynW7J5WrS9VHguv3htWjsIjER8jKZubEYnZmMQxGl0rT3EM7gmOocnQvo8SALaPhflwTIdpDEyfRDol8vBUurPyq3YoYH52jyt7g37sWTlj8D859s8P4v9FVuXuQM3p7l4ilvPmBzFT1KsQHYLJLCzl8WG5Ly/cxVZKH68zZcwGEMtfVeQZFGFW7hmrC/sT83dkjO6Jqt/XU4VKXyHBI+MY24V93p3gFVnxXmDcig9busR4fEzC2uu/s/axazbGKuGsHHaNcUrWM4H1d52KyrJfFVUdFekuX7+Fo1GkPNFHwqd/qJ9BV3H668jDw3SZ56SUFFP8GVmxiYYEyP7pGU+IsnzYF9h/kbXI2m3tRa/QX7N8Hkim3UEcGTi3hFKQWR70krOxpcaqKj+Tw9LY83z+NGd0rU6Fsj3A6NpOjfr2sXdLspUFv1ekCJZ5HWoVxdowxteXgncVeNTf/j4bMh2VIfMwMW2Wf0YO5hGqe+Gvu314L1S97CmPkEVUUem4rlW0Gqgg7TsiRJ9+xorC+pk1taptqLjYNaZXZXWBnuG9kI1DFac8W5Ye711V6VaJEBVWdJ2lnykLLX/UDUxXYNuOzJ1oLqp5yfrSI9I96h5H8Rl8nojYVN1HiBDTVL3Baj0+XhmL1bCo3Er9iOyF6YgvROj3BGdc8KpHGTF25tGNUfMUVed7qMlm1976xHhTItnH0uH+YFVxVqxIT3jMUkcPMeqT7L7PjAuW7yyyzAgwMlDG+LzP7PsRYYYFI4QZ+RRhKc9v9lrtD2E66wPfD75v/D6Q9Yffo2ZjXy2/4krK29vbeHt7+6RP7LfaD1yBrBxGvr6PkEg82BiKxhcC522UhqVjhId7qah7fT7D+/v7+P3795/xoK5ZuDrDgXUr3dRZIVT9gPBzzPDGGt7BWcoNEe0xelkYqarBgdcRQc5atSjfGH1rJYLf0/FtRo+QGRpnESAr40wSnLXcrS+YMsM41g6l6CphY3z9A96zP5097ciA82OItbEypyK52H2q3uPO3OoaaigHu85kYX2nkHlSWAfTdUxOzI86gc0JM6o9walr/43yZ8RWdZjUNysDwe7BIY+wO0BVA3181iCVJupIr8SqRIdttAmLe4NqT9D/7nqFUR9im72l7tuaeYSRtZlNPD9RziK4IzCZcLVC3Ve114ceIPYd7qGpvlDkiGPviKdn38rj8/tv+G17hNZGaxfuaVu5/nQgHq7JlmizfUL/3J+6jxgfkVt2HypkqAglut9+zLD0HV1rxKLkZgQRQRG28rIij9B/M0K0d48qvRO1Y0b/s/5R7ff9cGiP8KhiXwVjeLTmfTz+zqxWnz6b4JGl2O3fKB1rlyImfPBZ5UP4PvTXCmg9XgUoU0ZUqt2ovKJ4dh2FsTGXjS9GLp0xGuVnp0X9GPLfGB71RbV9EdFUfh8Zi9m8w3aw6yx8FsxDywhktg7maUUeIIv330hU0VIpC68aACod6wtc4h/DvVnm169fnX77g+oNR4G6p0NZOSy972iWJlMsLNxfz+wR4um3DJU+9f1lNxWNAbY0ioPTW5t+wkV/zpqF34sYI6JjygmVGhIBjiXlIWJ5WE/k0Xi5ojfDvLx89Qhtn4OdAlXp2Lcv3/6xwb492eFzYtEcQbJl+4XoCVo7VD9l/TyLiLiidrJ7iDJ26mHG6hjxSg7qw8rSI0PkaTGP79evX58Iz67RUzR5mF7GeiOCN2A5eM3KVH3tx9qbXwaZsSRmB+NsfUfLxYHL9mmy6+qHlZNhxpr0dUXeHwvHY/IYX4XykGbTRejkrVrtzOrGa6ybeSBRfUqGI2OMEU81rvNBT1CREYZn5KEIptJ3KxCVU5nTKLPqF59PhdscxevMkDUwJ8LKV06GukZDGT1AjGfp0MiOiE45QtU9xaxcD79tZHjzSvAsImTCqDh1c2fC/TfKW52MGF/1CCskqVDtU/tGzy+bNP7aDwo/OLycbMKgYqzKO9ten5bdw0q8Ulp4bW2reoisXiaPaguSFtsLjPb+KnuKlT1CnDP+1Kb6Zs8RRp/Km5kirDSeo/vi28P2+CvhaHiyeiLiHKM2h1m6McYXUkJisjT4zUhOeYDqFClbIlVy4zeL93FRv7B+i+6v4Q1v+hXg5WAnIqtlqE7oKkumrI58ovay6277cAD4sMrA8CRnv48YSwYrawWy8RoRpA/zRBbJyq5Zvkq9GJd9Vnl1s2UreX24+l4xP7DPb4GqnmArStanJnP1/iO6Ri1+/EEmXycjDVWW2gvE62hvsELkUXsr8Sqt0nfYL4ffLFOFEko11IA3TlkSWIbqIBx43aVRtu834yFiGxGZgmWDVfWPbz8buJgeTwGydXiUo9KGMxHdOyZPRlA4hvzksXxopGH9rF4PHHvVvb7MM4yuo3R+j8631+qp7hEiwWbyoJfoERmzDN5AwXnPfrOxi21gc1jFqfMATF5PmKx+nOMmryIsH8+WK5mesN/Kk4ueD/TXPt7yebnUEmlGYEcJVHEK3pPDb5a5F5gyqubLJnEnLCvPyxoNetW+LJ2P85NaGR5GbH5Zi8lpZSnyqyqiq42rihHCoBSm/83uc3bffJpVnl+knCOljWMiGt9ebn+vK2O8Wn5kYLGx6cdepYwKUUb964nbXyMRqvmP6Vj7vKGpPCs8LIfL1XhfI4cEyTV7TjDzCDMC7BIayxfFM354eXn51EdjgEfIOmgVlGJWDWLxit1Zemb5WHr7zgiMpVP/45UpMbX/weqLwllf+T1C1lc+nJGgDQyvSNTkjfo0SqPSHQVToKxOr3S6cnglw8pm19G9U2Ousifor/0eH45JTFcJt/ahp5rtFdqYUoThr6N381qYV/5j8PGm4rrICB7nL/vN7p0qz4PpBDYnjYisvdHyo/LUDBGxIPFZfl8OOxXK4it7hBmhjaEPy+BhF0Wcigj99xgX9AiZBccsvQzK8lFKqEKELCybQNi/kfKM6sS0FW+L9QFrt/94y35GyUSkdBbYPVAyKfkq5M7AjIdIPp82uxeVDy5BKhLKwqMPkxnDsB/YuK+2N+tn7MtZMsx0X7W/FUmy9mP/oeeI6dGTs/mJBJMte6p+jgiVeYQ+DtMpQjb5sD5/7eWtxDMiZPVgujHEc4TsJjCc6S16mHfj4W9aB37w+LBsUmIZmSKpeISsPfib1afSVduO8IOA7cfYJPPXWV9VldnZqMjFlLTynqt14m9GFkpONrZm3hXa8SBZ+Bif9wLH4KdDLb8fG2o+sNUStXfovUNUhtZ/qNR8v1buH44L5WlmJId7qthmn5+NAfuNS6soB/P+GOkwT9B+v76+/nm7iydWhKX//fv3+P37959Tof75QLWHGMUzWa2+zCOM0lubDGoPtewRYuQqKG+smpZhlhCj8phMGQF1lX2Wtkp4GKeUQhTnlQtTZkrBWZ4s/Chmy2HKJiNA1medupmBpWTxwKXH6LNq37BzD2fLidJhP6i+wvjOXGceAiu3Oh+r7UWCZF6hGpv+/mK8V+JeqVscIwsDGi7eeImAnh8jVyS4W3iEeI0E1yXC379/f+qLt+qAm1FOM4OYdYyHWjNW6ZnV4eNWKvF7w4jMfmOYXePSAE5M9BiZdc6Ung+3PJkSZWUdUdo+Xh0OQcXMxgcbNzj2ov0dFq7S2e/OKdFKeCedb499o6dolv/b29snL8Pus/o/RB+HfcE8gMhrwLxHUCU8T3RsnxPj1QoRK58Rph+XlcMp0W9T+haO9SOZmVf469evT3t/+Bxh9qaZGY+wGu/LZWPIh7GlUZz/YzSIcAaohBlUR6g0lbjMMkSl/uhAAmS/s7Qsjk3iMfQjJz6se52li8Kj8rJP5DngOELi88TIlB2Tb4zcI4wI/IyPlzFL670L6x/fHiRZVZ9HhQhZ/zNkc1vFG0koqLFo3xHZqXjVR5bG98MYXw+6WToLs/6J9gRZf6j+RjJB0qzER4dlsH4Vj99srHQ8Qt9Hhj9EyPbmImRpfSWKjBTx3QOPSo6snyMFj/lsIpkisMlpA9h7hTbhLJ9SBJbeW6CYrhKe1aOULvNwXl4+e0S+D6LxiWFRvFI6Fc/x5UV7hPZRe33ZHmKXFP0YsHDvUYzxHy/RvAYbb5bv58+f4/X19Ut7EN5j8X2llJ3/93p/D1BJsr71/Y7APrAysFz8px4fZu9nNfkrfe/7jI1xRTKKsNh4jcjNnwj99evXn/1BtkfIPL5oSbRi3Nh1hgpZZ0SJ5eG7td/8RYcE7klgZ9XtJ9Kjo0KGPp2fiCrOwiIiY+V3iNDni8qpls+IEuvrEGFkbBwlwkxedVAralvURywOxwLW5fvLGxqm1Nl+GRsXqLi8hR4RnO9LlW4GymhTXpjvW+xH1Xe+DgtD783L4okF27uCDBk5Vg+8KJmyPmZzxsdb2Nn8guV/etdopwAc3KsFt/KO7gniNTul9cxQAw2v/bLKGJ/7yU8ERViMAHz5SvliPCM8tRSLRDCzR+bbjIjGEYZl7cO2elgYO9U5xqCe4BhD7iFm/RH1t/fIPIl5EvSE6b0gK8vkwn+9sPK84h1j/NmH8mVHfY79j4oYx3x0P/w13j/c62TPPKr9QdbnvmyLi4weIyVrh7+Olh49oZmn5z2+X79+UQ/Q7/v5/UK11Kn2/1jf2m811xCel9SY8L/VYRxlhKEcbz5xh8xWE6GyyjEuSsfi2XVGglEnVnCUZI/UqwajD/fXjBSZdazki9JhGpaOKWQsV6VjyoUplEjZmMJnuDURrv5U6sR+9PMDv/1eFBIlejaKCFj/ecUUESHTOUwxWn2Z8YZgfefLwDqtD44QoTdeLN762feLIp6MCDEtO+2pPL4orssVjNRYOmsDXkc6iF0bmKPHCPmtMkAMEQkpYrSb7G+oKiNieCUDi2fpI+LGSY0d31E2LK4KVa6PY0B52aBjyg7rwSUgP4iUpaX6AZVb1DcYjsSUeYRqr0z9+wJ6hGpMqgkbxbH2KaJFosE9wYpHG4WzvVMW7vvdz4G3t7dPe4A+jc2Zj4//Pkvm70lUDypxy+frYnNYjfPsnkR9r+JeX1//HLFn5OZ/q/cPq3vg62D3zPpZERAjJBb++/fv8ffff3/6zj7eg/SnRiMC7twH5AOVhnGCL9f3j8/D+APx8fHxZ7XF8BYxNBNQFR4RDTaOQZFdRJwqXpUfkbVKVyE/dd1BNjFZfOXeIRmigYJxiqiYPKjIUVYkyyoRsnqjvmblMwJgymeMOSKM0CVCbINXhopQjnxUH6JcjCiZAsY+UfJiH3ql5dNFxizbI1TXs/Dt9PJ4b9jvHZpRUCVCTwaYx/qi+nhARIS4zFn5sPyq/GwceKCuYvosimf6O0KWFj3FtwpDK3jhVgzAs+AHtMcsaT0aFGEq4vGDxI8LG/heGSkC82NDKVZVhreaWTxTKl6ZKE+QncrsEl5F2TJ5VTr/Xd3js/6pPj/IvA0vp68PFSuSpd1/7xUw3aFI1ver9wB9GuxfLxMSoZcVkd0nlc/3EyM0XNJk5NfxzvE39hkjPIxjYczbM48v8xDNI4wef2CEqIA8weaE4iGvvyoGgM9THRetN8swz2IWlfwzdURKzd+MZyZBRfqZIaCssKivImJj9bH0zGOKvBXmabBwVF6KQO9FhJg2Iigmd/aJ+lIZGSyNER8SpX2rPoz6QJEdi/PhigRWEiF6gp6sMdzuC/Pu/G+2h8q8S3+PmZwZCfpw5u3NeIaKeKr3zYBkGKXBMiv6WhFppZ63SgUmkEobTYKo0dkgjm5ydM3SZ+3sdPjVoAg+ui9VYkRFhx6AUrLs3ikFrYhUpUOFwk5VMk8QTzH6fYJIMSMiMlSWbkaMjOgqy2ssHTuAUSFNJqNvq+0Xsf0r1neV8Oy3DzOiQEQ6oKKwMb/qI+W5qXj8jSSoPEf7HfUlkxtROS0afXCPkPVjJB/TRWy+q/syxvj0byS+XEXMuHeo+ujLc4SZ4mSN843KFEJm3VXq7FgdUfpHJjuFqJ/VvcX7hvcU8/jB6w/T+LhogBtQiUVEGJUfXUfKiykp31bsE4XKGFTt8fIiIo8wa2dEbFk6JhPzgBQBKiJijz6x64g4K/ekQnwd41n1W+S5RWMMjRcz0qwcX6YZmqjQWdsz/Vnx8jreoUJmGFbni2qj0klROVHf+bFsKHuEKEgkPEtXLTc67XMEmcX/DOToSbF6XyydTVSl6FgeVBhYD7OymcyK4LL60LL2HtHr6+sXT9C+f/78+YUIWTsZqsabaiNrF7Yd9/LUHp95tLhnqIwADI+Ic4yv+8OonLE/kBhxD9Erep+OjTmPjrfH5FAEy4jcGwB4Xyr9x4hQGWOZZ+hRIUIcZ+o0KHuTjPIIK0SYYUa3el3mvxXJMaMrG0+UCCPliQUgy6PQs1ADu5JnRb2PjOo9iCy0yoA169XSKyXPys6sOFTETK7MA1JKK/MIx7gvEY6h//hWtTlqvy8/6yclE/5WxhEzYn0YG3PolVQUV+Zh+rCIXBX52u9oPI3x9e+TVHyFCL1n6OPYygtDZNBX9/6UZ5gZKB1UdITnF8UxR8r3aZHv3t7e/nNext4l1ynMC78azFpT15hPxc9YJs8IpZSVcYP9yYgJMeMRqnRVwvPKhV2bJ4h7ikzeCJ20FQPAkHkaiuTZNcsXHbZBWeza32+8n9gHeCDDy6CO5398fP1X8wi4nI2ICM6niR5PUIaE/+338fCbEaHyBtW+tjJiImC69/d36vn5vUIfz8gQ//fvqA7FscSMLd/2zJtncqEhxoD5/7xirdNATM8axbxH/K2EiuJm8PERv7n+UQgS5ZwxXBTYfVHlRPfLh6lDNZguIwpGlFWiyJafZomwg6oSi4hsjDkPkcmh7oOSSykvvLaxYfMNydBDeSRR31bGsCJBX252KhLrQ/m9x4Zj0+KR+PyfHvsw6ysk4sr9xDBGhF2vUPXL7D3pQo3ZWeBeoCr37efPn3QQIJBhsaOyNVr/4Knd7GjgWjw2JPMAcTKxycqs48haVgpWDdgKMiVuwHpUu1X/qPQsP46DLL2XH4FLO77NWX6lYNg9ZB/zANX329vbn2vW/ggdwozaGKWLiH4MvXSqPEr2TwisHC9Hdm3z01+bZ2cKf4z/zkc2dr1HaN5HdPydGbQVrzD6eBnx3kYGhRqj9rvq+bExa+GsLkV8LB3bE/RvmvEeo3+TDHqI2Hb/2xM3QxYe6QTFSz7OUNFVmNan+eMRKuZkFfnKmLfH4v0EscargYllZQTgy6t0fPXj80aKrEuCUT42oL3n4tNFSoDVFQ0W1t9HiBDzR2mzvmbxnQ8aLmyPsEpuqt+zPJU0GfFFY1MRaCZTRYFhGi+P//a6RMnr4QnRf5Q8aFxFxqDXO5EXNMb45CkpRGNUzWFPcKabbCyya/+Nzx1GRKjGjm9nxTuM4qJxgs5GFRUCZXVH8lje7HlCzP9mb9ewChSUJ1i9RvdfbcZ6C5JZaaoe1UAkWD9pldJk1778CmmysqL8qLRZ2urhjgpBsr7D+8bK8xMjIiz1mAWD8kiienxfocenPHYEM8qwHWehQlYZIqt4jP+2TylVlIVds/TqIIfNXe9dmNcRXSuPUN2zDEy3eKJTe5WVPUrVJyxeeXpqzOL4xbKUHlHpvKfH9gqrHiHWoe5NFM7iMiL0JGuoGv8sb4Q36/CKRcSIixGZT1vNGylp31nKCjQwz5ZNWiSXjKB8/ijOp8nqRhlZuYqQsWyPKhGyeGYBzhAh5lODPiqHERMzGrJl7QidybIaKwhX3VPsQwZ1ohM9ZTaG2b1VHkZ0jZ5IRV4GNGiQ+KpEWCHaKhFa+Wwv0MvqHxq332i8+DnHyJCFM+9utUeY9ZNHpxymY9TYUGM90o/IE3/2CDOC8Z3lrzEvvgmAWWZjfP4PMp8OlwnYnh/Lh52F6aqDp0uELLwDLE8pdrQS1b3K7qNKh32apWPK0f+2QwHYVtV+hYrRwA7ERPeDtZPFR3IrWattiPJXDRxUAPgd7TOhcsV6OvfE3/OPj48vXkXlmi2Nsv5QY8j3zcyhjzPAZEA9iGCkx+4VG9849tHji77VniEeCsJ6cY5Hc74zD6I5wAxkvL+RQfPy8t9nig2tPUKcaN7qiZQqIy9cKsXyfD04yDEddghrB964qnWFZczc2AwZCTMFH03uikxHiLBSH04In44Rm0KFCNW9ywhl1tLtoDtGsrRszPvw7F6tgi/bj0nvTaB3EZ1cZB6hb2tk/Fmaiqz3gDLOFUn6fDb/0UP08T691xNqX7Dy8Y+0jKH1Jo4D7OuKMYyIDFg27saoPWOKMnwiwu4eoT1XkllcmSWEHiFzxf23AZcXsAOUB4kdl1lTnjgjssRO7Si+yJPxBzrYvkHVm1Fx0T2rpo/aa5MJDQf/zVBJw/ZPcB+G9SUCDTCUgaVjss5ClVctF+Vi91NdW79Ecigo5TbjEX58fHz5pwMmh90jX7ciBFy1wvZHc4QZcJHRyWDp2btsvR5k7bPfaPQyA53pM0+YbI8w8gDx2+vrrH4Vlo2t6lzL4rOx78HG/Ztfk85YVFkyY+SPTxiBmhAsn7KYcKKbLDgxlIWvlDG7qeyGZ/EzCrFKroooI2JiYNajsr4xjKX39XUGbWYoVAwJ7CvVR1h3JCP+PkpyVczWo+4Xu3/McIrisnuAc93P6cq+YLRPqCx+ZhT79meGOLZbjeUO4WVgekzpOK8PvZHiy6oQof8oT089PM/2CCMitHAmD4uvXK8iwghmpHwiQv+fbJk34QcuEhm7uT4erUZv4flvFa9IGAe2nxisTeqGVk9lZR9WDyrtKD96gMprzO5TBpaO9af/7b8Z0fjfbCmHpUOg8lPpWZ+qvs3ajcgmYwVZ/xwpX8mP94XdL5VeyVUxKOxem4eXnRb1ShnDFRGy+YUelG9XpCPwtyJTJkeEqEylH03nYVuR+NS3lw/Tn7FHyOrGMNZvak6x+4Z5s/iu8cJk/rRHqKCsGCuMWTQWVllqwDIy0vPpsSy/14nlWphSzuqmVkiukg7BBjcjRH99CyL0ChKVpY/PFHtmxSrMEmFGgiibKrsSX0FGMivA7rUnidn8eP8jkrB0ptQr+4T42+fHcrGOrH1ML6jfq8Hmi9dDTNcZaXmjX41jNi6ZDjLDZNUeYYWIGSpzGfsvSrdiXr6+vo7fv39/4qY/S6O+EobqHiFeWz4b8OgB+gngB4oiu6xetUeIlgR2JO4FsnDMrwZrVdl7JZ55gvaMUaVsdR8Z8fnf2bX/nbXZJrbFqXRdMKOjQoiszopyj65ZHnYdGVgVoJzM4OjktzKi+pn8WVrc8+s8P2i/PZGoe8j6UxnJPi7rp84YqQDr9ToQ6zO5cSWlQzyYfuUeIfaRGtNMJt8HtybCaK76uDckpKhARUYsDAcmplHX+I0eppWpwn25KDtaWj6eKVh1HWFW0Svl3V0aVYiIzeqvEmOV/DPrdQaZcqiQIHoZWL5KW5FtJi5DJmOUNkqXrQL5+rI6vREaeYFRukwHIVGYbIwEu/3h2zqbVwHHG+o8bzRinmz8ouw+XB1Q6uwR+pduM1miMVTplyOozCmWxjzCT0RYPTVqN0+d2syI0Q9+u5E+3q5xrxAniRr0KhzlUwqySoSso9WAjZARHnqD/q0TSFpVYJ4q8an8UT/N7hFifVFeLBst7cyqVOV2rU6FrvVcRXbvO2RYQVVum6uZ51fxCJUxo053s/tXIdasH5TBxMphYSw/6ieme6J5o0gQ4yKPsLNH6Ou41RjGdKreTJ7qY1zt5wgjQoq8Pd8olYZdq7rZIGHhuGcYEZ4KZ+miPFVkXownSPx91JrqEh/GVwjOK7UoXyafyqPKVfeLtc0rKvQusB0zWKU4PFZ6KhVU7xnb77Nv5vn5ODb3/RywMDZG2f1muiIiLNXuLA0rJyJBNNQjOZjhqeY+uz9+v6+7X4h7hFE9M6j2qaVTnmfmpKi++uIRWgS+iV8J5ff8fDgjL5/OCAn/e4xNGq+UFNGyN9OwDmQKnHVgpGwj8mPKWFmzlkbtO+J+oPIKVwxGZaRE8Wxi+m8P/9wjpskIFOurWINRmqi/VJtYum4bMjDDwYdnyuJovEo3O778clrk+eFeovqnA/YMr//Nrr3yY2OoQnyqX7owfaZIiukH3x4mX+feMA/v6B7hLBTxV8dwtz8sXHmEmPfNfmRrvUgult7v1bG0bGAqklJkyjxCtUSb7XlGlkXmdURpM/KrKmr0BpEkvYV8BCuIkMmvyrO01fxRnVk+lV4BvYaMoCplVuTJJvERRRz1XZa227eGaDujs09oMig9kLWlE35LKK8PV+PYGByjf1/QE5zZI8TDh7NQbc/Kxj1hRGY0lD3Cf/3rX+P19XX8r//1v0qdjGnYJi9+Mw/Pnz61cpjHqPYI1btKVfqKd9HxCLMTij6dt2yjU6JIgix8VkllUIMmSu+/8befzOo7KtfKqEBZ/Ti2VLlZ26v9nc2NinEUyaGsahWmrG4kPWb1d8eYn3v+lCjz/FS41xVWpt07NFS8oejDKn0a6YTI8IrK9OGsPC8/zg3rO6VrWDmV+VrdI/Qnetk/1rP2qjmn4nGMZWPX95WVo/oGrzMdyQ4dvv373/8eP378GH/99ZdcHs0s8yickZUJowZNZAmy35H3gvEzRMjSRQSlvLrKh8kTDYBZVCd2VG80+PxE7QxSn75ChDhRonHKJpoib6Ukq7J34zpplCLPFL79Rq+ropQqMIXOPIpqOCuPGZcWjwTZkdUjGztR3qyOjsGDRgq7Ryoc0dkjxHuhHAqT0RsfTA5lAETtr5Tj2+/R0TFmrH0iwv/5n/8pL7kxhRx9+/TWsf5UqG88drx/9ZtPh+l941g5GI/tYG3DcBaHnp5qP1ofdm17fuw/9LC9Xhl0J3wVUX/NwI8nZiRkeTv1q32YCKz8ipVdKdfKUnFZXvWNYUppsHhWVlWuSjo/XjPPT50iZQqWzaExPivYzAiqtoMp15l5wO5LRHyZ0RuN1YwIu3uEPlx5hJ2xh3IqBykqRxFfpFNYf2Lcpwfq//3vf4/X19dh3wzK22FWGkuDjbTGsQ61jrd4tRc4Q4QRZohQeXI+Hx5u8UYH60vWX759lbbMokOEmZVcGTOrZFbKo5rf58MwNoEV1L3DslgevL+ZcsjSVeJZmghZWj8HI89PeSJMVr+sjfM6UsaziO5hhojsZmSLjJ6szjGO7RGyQ42q3kiPY3pm6GM6Ng6Ux8deTsDSYbj1geHtX//6158XkLKlUebJeEWOXhEqeEvP9vx8w/GINBIbdhSbFCycdS5DV0GjlaqsE2Yw+H6y/mFEYe1nsnbR9VAqRKisMHXNBnWELpn5666CZ/BGmf+230iOKt4Q7Rn6ciJLORrXmeEUpa0gS6f2CNHLUG+aYbrg/f39ywnkMb7Ot4oH0EVHWavxZgYQzmNleLExUSVCTJPtEb6/v4enRzMirIw9JVtVT2dzSxnXzEHD/D7P299//z1+//49/vrrr09vEcBMNhg/Pj4+KXCrzMKxIhMEBcIlT2YpWLhSCBkhYod2FXsE9ggEK4dN1Mgj9GWhQWBxFVJH+D626wgVIsEyWf6uh4ZlzOSpKI1KXNZnjAjZmMjyq/jogEFHObFyZogwA750W3ka7ECcN3i9vH4r5fX19U8ce+652o6s31l4xwBh9Rwdy2p8RnJle4TVfcMOYal4NQarY7hDhGikMpKkp0Yzj/Dl5WX8/PlzvLz89599f/78STetrQw8HYnWNbtprINwjVoR3ioirJKMskJUWESQSIwINAwq8lXCK0SX1RXJ7Pc2I9lm61d5Kkojqi8jLCVf5hF2iLKjJAxHlc0ReKWp9gRZOO4RjsENQT8/WfgYX59dNWQrFdm8Y33E+o/1qxr7VcLMiNDfc0WEbGkU+569H9aMGtbejn6N0leNv2husfuXLZli3J9Toz9//gyJ0BfuBxwSmM/Hnn3zg5kJhx2Ee4RYl5rUFSuGtbOaTk2eiAijcirKFie+Sj9DelndGazvIiVm6ap1H1HQs3kza1eljSajIZu8EUEdIUZmLEblzAKXRvEbvQz0SLAvvaJ/efn8fmEfztJ7ZHNGQSnrTtqK8WoydoiEhatr/6l4fz6MtaszR6L0s+V+fMT/Q2tjxX6zeWZjyRCeGvWeii1NeE/QD0zzKv1gfn19HW9vb588woi4uh2kbjrrwBUT3aM6uSokwLyESMGtkGsFkMR9vewNOBUi92ln0VXskZHFZLFrr3RnPMBouwDrYmHVpdNsLDHyYMj61MqJTomit4F7hGN83t/x2y6mX1g4GmKGzND0aXzd1t7KWFKEEXl6GKfq9+WzeqseYbY8yjxFT46ZPka5WP94sLGObY6Aq00eeD8rDkt4atR7dfaar5eX/yyhmsvsmRUHAXqFM4QWpWPx0aBZiSrZHCWmrtxVC/QosjrsPuDYuIV8XRLMrO3qkmOX+CoE68OV0cjKq8whJYdCRQGa8vSEF+1DrfQI7doQEZGHIstMp6i0WHYljM2LyLAfY0iS8vHYv/iZ2SO0srP+YO3AMNWvUflep6j75o0p1v/SI1Tr6/ac2/v7+7B/qrAw+22C+/yePPFEKAod/c4mrlISLE9lwleVgp+sLM5P6kiW7ndVtkpYB9HSLbO+bBLNLIv6smfkYwO/Ug8SDE5WtY/N6mG/mbeSyaHivDyYxsuYlcuuGSpp/B4h+1YeoXmQBvTwUOGxcJbOl8XAxm3HI2N9hPcgKhflYHGRDEZYSga2F2i//XOCsx5hRW7WDtVfLJ3So5HH56+R8FS61CP8/fv3H0JD4lOdhd4grudm5Ibh0SC8JxGy9BieWXl47UmUxVfkUuS8kgzVhPcyKDkqqN4vLBvzzdTHCI+NczbmlVwV46SiJBg5Gq5yWEZ5GOq0KCp0RkxoxaMiVNc4Nj2UN8HaNkOEHah568tVhKTSRvejcr8UEfp6mB6MdHxEmFk8C2fePOpepqO/eITZqVF7+8nLy39PjL6/v/85YGPHUNlgxiXVqJMUqmkrZKHSqBsalZGlZ0SIyhYHml8ewrLYROgQW2Y5zeZXyxJHifeIUjlSp/9mCgPvxWoiZGNUGXuzxJmli5DNr4+Pr3t/uB+l9qkMKzxC5Z37645HWO0bnJ9eViWP1z+RR8ruZ2T8YJ+rU6Psg88RsrZ6ebMxVB3DKn2ku6K5F50i/uIRqlOjnuD+/vvvMcb4RHz+xdfYEfj4RJVoZtGx2lg+P5kqkz1LrwiTKTu/36EsIj/o/cSpAvPMkJSazCj3xwf/f8vI6j2KVeUy5aOIEJWQIrvqJEVPFGXy1yxNlQgR2X5PVAfGj/H5eULWf2rv0LDSI8TymLxIpizNbP9EKzRZPRUiVNeYx4/Z7ke11bejojM9/FivpMfr6NSowcYMC8cx8fY///M/1CM0AvvnP//5J84I8+fPn+Mf//jHeHt7G//4xz/Gz58/xz//+c/x8+fP8X/+z/8ZP3/+HP/7f//v8fb29skbjNxX7FA1UJRS8QSlULE4lBWIeTseLhuIlTRsqaLrdbB07Hd2zSa4UkKWHvcIvQFxD2RjRxEfU+BomGD5bMxHHjVTYl4+D6ZEZomwMn6raS3e+sl7Fbg3aN9ne4RM6fl6sjRdA2uloWdlea8Mx4jvNxxDbA+QeePR84VVIoz6INK7s2My4wOLy+674ZNH6J/1MxLzg8svdf748WO8vb39+fz111/j58+f46+//hp//fXX+Mc//kE9TEV4Fue9Iy+oCvcdEynazJpi6aP8Kp3K672JyPpkA5jlZXVWiZBZcUfICeuueNZnILP6FSLruUKQiggj4mMy+bpY+Ew6j0ipVe5V1eCL9pvUdeYR4sv6fbiXjRloSnaWJsvTQTd/pBPU/Y/C8X6oe5PtEUZti4xLFnZEr3bqtzhFhF88QrPO/t//+3+fBp8nuff39/HXX3+NMcb4+++/x8vLfw/R+E4bY3why4py8HGqgTjQo46pEiHLz9JGYUoOzGf9bDJ6iwgnX6RMIo8qsn78NQvzcjCijOroYjVBRsYVq9Paqzw9drqRfaNSRpmq1mh37Pmxw75VOWw/if3uwspV/YfheO2NvDG+khsqfQwf47PxpciQ9b2VMzuuGXn5OnDc+TqjcljbLQwNMP+Nnt6vX7/Gr1+/hr1K03/blpcP//e///1l2+soorGbhc3cF3Wfo/g3G5C2B2gJrFON+H79+jVeX1+/vBLJk6Dl9R5kZgWzv+qpNDKKnyXCSJF0LBmV7/39/Y9liw8Es3KYBxIpWDUhq4OpqhCwLlZ3x1I8gojsWN24ysD6GQkPDw7YtTf+Mtl8mPIEWTtMTkyv8vqwGeNuBth/2F/sHaT+2oDGsL9fSs4sDdNN9tvHz/SDLyMbez6uUhcSICM7lt5IzP+tkr+O/obJCJPp9aOojEUW39FfPn/Uz9QjtB/2gLwltMndOWlkHWqEGVll2AGRtxiFdZT8GURYKWeM8UkB4Ed5fz6uQoQMrP+jPqzeB98+9Oqj61XoKJvIMML7oL69leyJ8OWFb8irejMijCxllaY6Bo8QYZQO+08RIY7vyt6g72c0mn06Ns7Uakh1XKpxg+Vl/TMD3384Pth4Ubok2//Lnh+s9EuV2P3vyGipGhWdNCz9+/v7+P/+v/9vvL+//5cIUVDzXjpryrivxRR3R2Gzzqoo6swyVNcR8WFYhwiVZccGe5ZOwRNShu5AY4iWeSzMK7GVJOhlwLorJIhyenkVCSpDRdURtRkVKMqAsnXSjZH/24TKp5ARJus7NOBUuJfVnzRmc9zrE0Z66FHiPfBjkRlsDJh/heEQ1YH1KL3A0ikjOtr/i+KitnUMANZvqvxMTyOqHjbmMWftX//61/j9+/d/iTBCxdIwT9CWWG2tWRFhNhjVwGRvFa/kQ+WYKQt1QzLLRpWDb9HAtz1UDIyMVCoKObKSTV5UMkiySo6KkloJZtFHHqkP8/0+890hQkbWtyZCREd5dIkQl0DxG5dKx/is0Ozbv5Cj6hFmOgXTsnQ+fWTwKeOzauxH9TBDGeMUEVadFfXJiDBqI8MRIjwD1t9+FTQkwugGRJ1rbDsGfwN/VVkxMHL1UPs1Jrd63VtGaCxdhwhZP0VWGk4C/+lMPiZ/xUtSdfjxEBFsdp9WgBGRrxP/J9PHV4yOLL5DhMpL8fEVQuuMORY3gwoRmrzYb4wI8dvKYIaXn7dVj1AZIczgq8yFbnx33LP55vsR6/FExfQDjtFIZ894hNbGDqpjcsV4zWDz39cjiZB1sHWQt4zNGzRP0HuE9iYaq9y+fSeywzKZ11O1rHy9jEQyImR9gr+ZEmLpsM+YNxh5hmcPEKbUlXLKlIwydNg9O9KmzCOMlNTHh/67IPZuzBmPkLVT9cFRIlTXmdKJwIg8KkcdimHfvh8R/iX99v3+/v7lgJnyFNV4i7zGGePyqOcXlcWIEA2OiAT9AZjq6hOWtRJXIsIxxifvd4zEI0TBVIebB+i/f/36NcaIl8eMmVl8dBKvQpT+2mSvtlPFs/SRNe7TqYHILDWvNPCj2l0dPEpBY5rMUo9gFryXOSLCmYHPvAIf7seWal9nKSnzCJmBpcYepvUKDvuGpeuO1WgZSpWjPNqovo5H6ONV/fZtY8gfwLN6cV8xMqgjEqwSlOqjSp4qQaKexXvPCJLpZbbyFOmW6via8QZZedWw1fB9YCjtEY4xPnWwIr6Xl5dPnqFXnJG34H9XiU55fious6JVmIrLrCc/qMYYqQeYWWr23Z20ShmoNOyeIQEq8lT3RMkWlVdBR+GxOqt7gRWPsGpwoeyRAuoQYWSMZctcR4BEjv0WESH24xj/NY69x2cfNI79/mGkV3zZlXQ+fYQqsWVldohwjM//OsHIzFY10BNU2zG3IJ+rAdtdPiyDFgf7zOwRsmUNf42IiDAagKxNHTAlFQ0iNXiryxKZxYbotFsRVKbMmUGhyu3IdATZWFBjwitqdry/YpQoIvThFqZkXkGEGfGdqegYEUaeIPazH9vsfvlr0zG+7vf39y//cJMZSP535vFFuBcRokfDiFARH9M13xVTRMhIzz8vaEuhnT1CJEQ/GNjpUJ+nEr7SC1HKJ/IIFREyT7BycjQjGxbfaV/kCVbKzrzGWUTEz8YCKkVFhH4vsOMhMiL05VaIkKWvEpwiSJUvMl4Q3fFjHtwYg3qAETF6jxCJ0Iwuf20PgaPOQN1RIUK87hJa1F8dEmT1IKn5cPvOPEJ/fsM8xEjPfHdSLO0R2rfvsGip9OXlv0dTIwvMX+N7SdUbZ7JBrggSJ1v3xjPlEllVTIlVP8obNCXA2lhtC+ZFpRpN7Godvp9XQNVbseotHSsz8lSq9wblm1Eoahwxz04RX1SnisPyu/fMz6OK56e+FRHiXGePT4zx1YhmZVg4a2/XgzvSX5V6rF3Wdx5ML2A4M7ajZdHvToJjFB+fwE72BKj2Bu1l3mpQ428j0CiNv0ZLTll20d91zNx8VH6ZRe4HNXodkfLFeKZ0sU2MEDOrmIV5jwbLZ21kiCztDqJJqtrCFDwrV92DaK8QFTgD1u/rjNqYEdwsESqsIEKrf4zxpT+re4WKCFEu5iWOwYmQtacy9ln7ovZ3PMIojhmo1kd2jXH+N37Yc8tKr2wybO4R2m8cyLg3+PLy8mfZSRGhH8RjfH3uLJoQKt6XZ/BLKSuglJO/ZumRCJUyUBa0lcXIDgk+k19ZycqzZOVnE+deRIh1qjRKQUeeIPNkGDpEyJQaS19N18FKIlT9qAiwS4Rj8PMEkfGniK/a3iNE2B33an5lxo8ixI4n+N1JcIzmc4TWuS8vL/LbPEL71wpFfGPwPUJFnD6PLwfTqsntvZwjqBAfhmdEiEo5Grhqcvv4CIrsun2g2mrAv83JypqJj6xrRfa+XHVYBsO7HqEaI0eIcAy9R8jKrIARSHSNqHqEihhtLuDYxTltK0tqblc9PTTOMmNtliiP5vHjwbeZjZOICM0j9GOX6RhGiCudBwVG/reo1+ryCInQvjNrWRHkGF+Jy99YP9D8MqqPUx5f14O8FRGqdJm1zCxmtJqt3EzJZ2CTLkqD6fA3K4NNYIYzrFF10ArrZUYIuz7qEWZWt4rvloPpjqJKBFaXGuPVpVGs1z5mJPt5gPJVPL3IuM5WFmb652h66x8PNgaQGNUKB45dLOuWRBjpl3ug/EA9diyeFvWnRj8+Pj79H2FEWPYbia16WKbqQarrLvCGKaXDBmu23FYZtOjRZZOaESdeW5pMOaDiU+1HOY8SYZWsfXsqUB6LIsYZjxCNIdYeRXBK4VXaV+0DHEse6qUWPr331Kr9yDxCLBfl8fuAmUcXEZvSJVH7sj6oYoYImQEajRWmr9kYV5/vArwXrccn/NtCkBTRI+zuEeLSKBIjNiArVzW4OxhZX2REYOEebFBG1jEqWwvL5GfEF8mmylPlqEmI/VHxOlV5lTRVZReV2fUAqx4hUyzK8rbrMda9WaYKRUBVoGGUeX7RmI/kqFzPeHjZWLmCR1jRL2xsMD1t15YOSfG7oUyEkZWBS6D2bZ7hjx8/PinuiLheXr7+iW/m7SlCrXiERwa/UmJZuogEq0pj1WCtkJTyrDJDAIkw66sqEVYxQ4RVD8Z+21hH4sI2eeXEwg3MU1QGx0qllRkXVYLCMdwhxMyoMJmULB1jqEqQWfos36r0ka6Jxkb08WPtuxIgQ/k5QvvNBrb3BL2H6BVi9gYZdlgmIj5MY3JGRFhRkhWPK1NY2G9j6P0TZmSw8Ar5YnuztJY+UkKqHKXsWVwky2oiRLmjMpWxwQiQpcuMIIvPlA8LvwURIrK5oohSjVcc07NGnhqjq4itW06WbxW6cwjno7qOCPa7ovyu0TFiMvJvecD/EcO0EaGxeFV3FytuuBpESmnhtSIPg2+fGRLRhGPEryz3W8FkZxORQXlWhjOIcIx4KY8Ror/2cleMBEaMKj2GZ+lWIVtNYa9L9HJF/WUGMktXWe1g+5UzhKfSd8rJ8q1E15hk8y0Lw7jviDIRVogs8uqqniFT/NkE7SC72ZGHZPkVEUZWVocYTA5Phlm62fgzUVmGqUzAM4iwQ4DME+wQW2SNs/SGKmGuQjbPcCx6IjR5TT51aGbWI+y2o9K+SjkVr/AsVO9zNrYwnbr+zkiJUJGSIkDmEVY9vCgdk+sMdEgQw6pEWB2A1p9R+hnvLyN7hU6eFQQ8O0kr+ZjCrhAi2yNU910ZAlVPrxq2ChWPEOv2Y0kZDCh3tw3W7922VMKyMu5pZFb7KTIys7BNhP9BSIQRCVW9QPZMV0auWf0+vgq74SpP1SvJPD9V5gwJVjGTdpYMO/B1dBXG2bIxhZ2dEvVLe2PopVELYx6hz4dpq6R3Zt/4snH+2XkAlp4ZFpkBUMWqg2IzHuHK8rro9NcmtGM4tDTqlSr77zA8CWppx/j6hhkkTEaMPj4LM+ByDl77cFYeentVIlRKoKPwsqUplqaDrN8q6dnyrepLVu5svkheVSbLg4TIPET8dwql6LHOqkeEYwzl6/TDEUTLnhjvw9AjZMbFVtQbV0aJCDOPTXmH+DJczJOF+e9ItgxVZZJZ9lEalS8jwkxBqP67BTIlyOKMFDHvjEeO+apkWCFRprCj4/542APLwHKx3swjVPJlYSvBXlAfGRV2TxTpfffn1DYeB61Tox7Zcqg/Rcry+esoXF0fRUSOSoGpfBWlVbXumeJBo+BWRDgD5iF2oZQmI8PMMInuTeYNKiKseIQsPNtTzNpWIZQj/Y4Enc1B9Bp933h52afano2NW2CKCDMSVB6hWupcsQQ6g4p3V1W0XSKMFABT+FcmP4Qnw6onyJbiorJZGZ1rRmjqVCN7LMCXUyW8jACytuPhG+yXitccoeIBepiRq/ozIkGfb5Phxr0hiVB5IWwPz5Oeeo5QlevLUjLg70jeMfiS3uwyk1deLB/Gs/JVGtUG71FV97sqbWDlVb3Mbt0ZGUZe32ydCEU2+Ik8P7U0yu4vq4OFMxkr4zEaR/5ezoKdCvXAeWoGgdWPS6PKA9zEt8FwT2M/JMKMDMcYX5ZBcWm0QnLqmhFh5GH4PQtWdtUjQyiL1sdFeSpgMvr+W0GCvlxFjt2yIlT2l6rpZ8CII1LOkSfInotTMkbeTzV9BPUoQfaS7Nlyx6h57BUv0Kfd2DDcmgRx/B0+NVrZH4yIUHkkqmOOLv+MUT/wYuFVIqx4igxR29Eg6XixWdlnIdrnzBDJ7suKvCsMU0SIHh+SofcE8RrLrnp/0dirjmtl7FWftZsZAxWPMyPC7RFuXBVLHp9g8bgsqqzVqsdYjcsQEZ4KZ8o0ivfhGSqeMX5nVnlWx5lQ97MDpnQrxou6Bypvdkq0cljG15PJp4iqQwxRXUf7PpMjKx/JD5//2yS4cRXgWG4flul6hj4f+10R0kMtp1UmaFROFBYpvYwg7XdEeMprUvuEXWUXkWPWb0xeVVYnHtuMda30+jMv3pMgI0TmEUbeoKHymIQPV2M7K9eQ7fFl5VbyZEbYjIHQqf8IjhoKt15dqc7NW8gS1Z2hItu9DaRlj0+wfcHOi3JVHQydQVD1ACuTNvIO1RJcJINX+BEJVrwjzDeTFvNV+jlTLp37vYoMO/eRkSCGIyFme4S+Do9s6bI6rqvEqzCzl5h5nIwAuysXCquU/CoyvSUiI/JemJmbMzr6lii/azRbEvW/1YlRS1OBmnToEXUVbcWDwzw+vuI1snxMVuXdYX9221hN3x2A1bJnyI95yKrMindv4cpAQQL018wDjDzCqG2RZ8rSqzZX2lsdK933dmbyoFzKAKz02cbGPdB66XZ1STTyCKtQk27WIsuWbapLPmpyZ3ERGLErw6MC9KyyNKvK7GBGLmWJZsZJ5A3ieMgIEMlTIRoPZ6CydOnTztzDquzRXmjHMNjYuBUOL42ehY5ns7pevL6XJVvtg0i5ZF6sYXYJE3HEW7c8XqlnniIrR5GdSld5tdqsR4j1dXDWSkB1L3EWkYe+sYG4gp6/LBGOcb+JozyIe8iQKTjleUTxKnzlpnY2PtRysYUdJcFI5sgLrJ4gPdsjnJlfZy+NHsUmwg2Fex/2aRGhsrajz60xW290cGVWDrWX6utgyh7DvOKy9qmlMLUUWJF3Bsqz9HvEitTY8qQRDcazZcxuvI9Tzw9GnmGHCFnfdPu1i84hhntY4RsbVwDTvWUizJSNSnNrHKmzehigms8TQHZwKPMuqtcdIkQCy+qpwOfBd1F6YqwSW5QueqUXphvj87s62Z5fRnp4nRHdLcf/kVO2GxvfDaiPUyJUkz1TWu/vX//E856okFiX6DrAMjrHib2S898WPkNgLB/2RcXjwWtfhicN84ir3pq/VunUy68jwmQeYXQQpkLQGxsbj40pImQeX6TQPG6xt4jIlFZkTXf2zVacdI28N3YfZghLldeJx3KR8PBVZGP8t587S59jfP3XhYpHaPlUffhcoPL8WF+ofr+S4bexsVFHe2nUX/twpkQipa5wb2VylBSzsjLyicIVoalr5TFautVE6FcBbI/QE6Qvt+N1VTy9MXqEqV6hxpZKtxe4sfHcmNoj7CgrVk6Eo2/QX4EjzypWyugQU7cPFfFkZXQVfNVLwrIrBHiLpVHLb9/q1CgrN+qTjY2Nx0P78YkqCc7sEdqSmorrlqXk92k6z71lniLmN0I64gWycE90LK2/H9U6ZrxXPM1aeZC6S4RZOlYeEqkiQnUwRp0mzfpzY2PjMbGMCCOF5hHtEa5WMNlpztmHvyt1MZKxsCitXWfeVUayWV+y8juHZTDeP/ag2sKIjaVhj4uw+O7eIe4D4h/tsgfrlYwbGxvPg+kH6hGRImJpFSJCOuNVYx10CNyfkqzmwXBFhN4jjLy47oP4Ffl83iqxZZ6d8uiyPNESakag6BHi2GVh2C+RIVGJR6wc+xluSeb33vff2MgwfVgGw73SsFc4RR4Nw8yE6ZLTLFZO5qgfMQ0LNyJkMiFRRjLMKMMqMXmi9sTWfWDe8rD0R06Nek9QeYSsHkWE6l54rF51mMUtSdCwyXDjyigRIVPE/rdSit3HCbIJqhR8dZKp8tFzW3E6lMXhHmhkKCiC8Omi/oo8lyx9lo6RA7v3jCDHGCGBKVKs1s3Kj/YI8Zotj87058ZarCLSqxjDR3Dv15GtSH+VvjSUniNU4UqJoAL0OHois3qqNFum8umQrDoyZqczLY3FqyVNlFUp+RmsVNwVz8kbQYq4LC7y4HydisAsn0/XIT7/7T1DdWr0jD7diLGSBK+mgGdxi3bMkGAlzxXvwdQeITZYKW7slAoJRKi+RmrlEuvq/NaGbP8QvRHsz6NeMJOrWp4iGUaEbCk0WxrNTo3iXh/zGPE6Ika1T6jI+0g/b2xsXA/Th2UiJXHEi4m8KhU+QxCd8mfK6BA28zQyw6Ji3Z6hnCMS9H9PhEujkUcXkU4UXvE0WX1GlNHe4MzD9JsMNzYeE+U9QqYMGAlGh2VMQc56bFZelXCusK/AylLeoCK/I4bFWUDCQBLx7VSPJVQIT8Uzzy/74GMXnriVfKoe3w9jXHO5Z2Njo4alb5ZB5ciQEaE6DFMlAZW2s3SJ1yuWWq0/rDyUM+pLpoBn+nEFItk8KSoirJ4axfrsd5afEV4kL/MUs8M4Xjb/e5PhxsZjonVYBhXe6+vrnyWx379/j5eXlz+vvfr169f48ePHl/IY0eB1dDI0ehA+OvSi6mHpoutZeBLAQxlIEpaGLc915Jo5/ZrBjwF2uASJULXRl9Uhwo8P/mq1iqcYERyrJyLCqmG2sbFxfbSXRv3ReK/0PAF+fHyMHz9+yFOjEUGpU6GMtFR51XS+vmq+WfiTibiciOSHaSwd4owl2wyKCPHbyozSRcTD6sw8uYzwlKeo5FCnRjcJbmw8F8p/w4R7f0Z86vvXr19fSK1CNGpJFQnL52flVT099CBniLBCIMzjQy+JESHuY3Xk6qJzcjQjQu8RIrl0PUKVlnmOGaFi+iqytNX7MbtEv7GxcR5CImQWsik5/DZP8O+///5Dmsy7qxKZylf19JAQM8KsLL0yVPbq/BIhIzvvKarvs4lw1iO0MCQ4K1N5ghUCjIjOp+8sdbLrmb5iYfdYqt7Y2DgOSYQfH/o/5NiSKJ7E+/HjByXCzEtUk58RlsrPiO0IEWZEl8k9xlePUO0JRkR4JrpE6FcFGBF6jzsiQizXfqvvKiEyebEen0bF+f7B9Cux0pvc2LgXcIw+yjZCSITsE+0J/vjxY/z9999/fiuP0KOyfOrzrfb0quVV5WPh1l8Vwou8xjMH1QwRRqcwX15e/iyld/fmGFGpepSMqlyVr9K/3jA8A5sMNx4Zj0qCYzT2CNHq//Hjx6elUSNGOynK9gjHiPcEFRH5uIpHiOmjfB3PEetQcrL86P2xAzE+7NevX+HS6Gp0FKwfD/7af9RqQnfJMkuP6RQJqnZgOVin9Q1eK8zGVdJvEty4JbLxVtFHjzJmW4dlPOEh8dmSqO0NKi+r4nGxOEVUyqOsEKK/zg7jRJ5gpX1GaL9+/ZIk6AnSp/NLkFcBI2ckwgrhZURodan4rJzMgMhI0ODbky2Dq7gZpfAoimTjOaHGnzd2MTzLe0VMPVDP9giNCO35QVsa81CemUeV2AwmB0sfER+m8UpOlYdyqfRM/mhfkBEh8xqvRISZ5+b7YYYQVd6oPAvDQztRfqwnAnqGq7E9wI17g83b74DWqVGvZPwS6RjjD/GZ0jfvEJERmyLGytJlh/iycCWvqlfJjx6h+kYPEInxkYhwjK8GzYznFpUflYeP4GRLrh2cSYYZ8XWJ8UrjZSWydm0DYg5Mz3XH0NH890LLI/TLYXhK1BSEvW3GCBHRfYDdP5OG8crDxCXPLF2VCDNPMcofeYKRR2gfpsjviYi07Np7hor8MAzzszKVlxjlYTJkbRqDH5BRinY1kR3Ne7YHu/F9ocbjo4631ptl8Ii8V+RjjE/k4789ME3Vo8o8PpUeiRDrZOmYPEc9x8gj9B/zDDF+lUezElH96g1BVSL04Swv1q88y2xJVNU1Ru+UKLv3LE0HKzybR/SO7j2uN3JUifBRPMTSYRmzLO2bPVhv7xo1j3AMTYQ+X+YRKuKseIhebuYRqnQdjzNKi+3NPEG2JHpLIqwq/Cw96wesJyMo9jvyBlm5qqzZJVFV5hlgfTdDaldVPB34lYWj6SuefYSuHCvSzCKStdoOli6SedU8qeZbZeiFzxHat/8g8SGRmHBIQBaeeXRnnQLN8vvTrpF8Wf1KbnwcIvIEmWeIe4T3IkJrWxRn91+lV4Tl49h15gFmRBjVW0HHQzxSvorrTvpnIEFDty1nKNLV9+AWqzrKoKq0I0qTGcEqXcVA6fTL6UTo4UnQCAYJ0YTy155YvOCMsAzsFCjmqxCb9zgr+aydUbwKr3iIbH8weoQiOyyTDZQZxTG7BMjuF+tLrKdKeCo+8xCj9tnv2Ym0ymM7q7yNjTNR9RRXeYhno/w3TLgUOsZnpW+Kz+KZRzhG7xQohrH4zPNTzzRiPpWu4wFG6bNDMeYBKs+we2q0a23OEiEzAsb47wsXfBokw8wKrHiALD8rR5Emyu3zs3ax6yy8Go9pNxFuXBEdT/EpiBCVhxGcXY8xJDHi0qkvc4zeA+wREap8XumyJU+v7JC4M0KsyufDMy9QxavnCCse4ZnLSVk/+H1kJVdEhIoYFZkp+Sv9cItlmFliO1Kn98rvjZUKsGqwbdweTNc/AspLo2PwRxns2xMlIxaDXfuTpowIq3t8zALx6e1/ETOiYh5hxzPMwtTSJ3qA0fJoZx39FkujmbHgD1D5+3WECCvxM/3kDSd/jW2PEMXPEOERr/BZSbBS5lXa/Yhghuts3m7+e6L1HKFie09+yirPyjbgHqQvn90kFY7lRPkNprQZiUeEl8W/vLxIr8/6DK9nPLqoX1ciU7LZEqZPg3myMjGskk7JkJW1sbExj0jfXm2+lYmQoWrdZ2UwdD0yny8qKyJFI8FK/VhfJl/06jRGjKvI8Nbw44F54j7dKg8Q03TL2R7ExgbHWXPjanqtTYRq6YgtjSKYNaBccV8Glqc8QV+mP7TD8nkFbXFKcfvf/pRrd5mQkZ4nP+wbbFPUb0exemBmbVrlAXbk2djY2GBoLY3iN1sqzRQ6pleEppRn5oGpOgyKsJBcmednBBuVo+phD9N3PcGrey5qv61KhF0PcGNjY2MFDi2NjvF13ZcpP7UuHIWzPUIfX/UQ2RtsfHnRniB+q/jKkinzBNErrHqHj4iKYXTU45vJj2NGLa13y6nm29i4CqJVNsQz6aYxDhAhKuto/+dIHWxJksV39vBYO1R85nnOEOGz7g8alGeo0tnvbnuP5o+W1jvXqoxNhBuPgmhlDfGoeinCYY/QgHuEGOex2kNksvi8yhscY8ilTpSnugSKaewbPcGIAFkfPCKyveDq8nk3bmMjAs5N/P3MWLFyMes1Rvr7zPMPFSwjwjHOPx7LPMSuR+fDVTqP7h8Fq3LYMij7/cieoMeKpdC9R7hxFpTh+sxgBvqRslbi3v0fvnTb78Upryo61DKz1IU3yytM9OSYVRH9/U+XCF9ePr87laXLlkS9vGw/8Mwl0arXrNJWD+yw+1MpaybNxsbGenS84zPm6QxfrET6irUxvpKg/40NwKU9pnA9SUTxKg5/o4wqTzddheCiNNhvjPgUEVYGxdHlhYgMo/pZuqN7C8/iCW9sPBoivarwbHP10GEZ5jFm3qDyMrFsn56F++vIU6x4gqpe5TWqsGgwWdkR8Xnj4ZH3Cs9YIlcrDzP5xuD7RCpNFlaJq8SvxJG6VnvvjziGvyvuvUR5Lxw+NTpG3ZOoxGM6ZaEo0lLpq55gJZylyzxPJDlFfo++T3hE9q5yVemzvcXIGJpJZ3EVJXJ1MqyS4CbCjWdC6/8IDUrJoxeQ7Sdl1rpPr1BdW0bPkMnEZIiUodVd8R4V4bE4haN7cNWyZsEIqFrPrMfXKW8jx733ahg68lS88s5+2FFEuqyj52bqrBhns+2vjJNotQ3D7o2WR1ghw5myjtSL+4nVpavqAMgmTtejzLy+inFwRWRe2Ex5V5ooG/dFdc+8M1erXjyWkaHiCPjyzhjnbJVKpZkp238rsO2do7xxFqb/fcLCxtCeYKTU2alPLNeXhflZ2gzdwyQsXXUyVby36tLeo+OW7anWNbs32FEcnaXVjevj2e/fs7cvwpI9wpVlVD0uVc4tljqOEuGzo7L8vbKeajhidm/wCBlubFwRFQ/S49mM9aUP1BtWE9MV9r88zlrK2KjjkU/Vbtwf33m+rVgirtbDUDlTcut5fQoRjtE7KJGV813wLJPTPMGz7913Ghsb63DrAzNXAnp+R/cJz8KtPdMpIsz2ArPwDN39m5k6juA7TKLZdnWWRTeRbWzcF7Oe4ZG5Wz1xekv9MP3HvBm6ZFi1UM44BdXBM1mTZ8leOcGLaTc2Nu6Hzh7hM87Z9uMT7ORodpqUxan4DLdcy75lmStk6JZx5l7nitObz4BHVRodY2Zj49HR/of6Mb4qu+ozfEaalf1DdRJz9cQ804u8pRI5gwSPyt954PYZ8cgkeMuT2Bsb98bywzKe5GYOzMw8r6XK2Kgj895XlNfBLUjkyD7odxlj1WeDr4zKtsvq+9l5a9Y9T0vOorOEysaO3wPsrCiqOo7i8HOElZvYfe7qiJd29j7hMyvAVRNyVR+dqRRmx0n1sY1b7FffCs/wlh+mV46enFyBWz1zuxJXGteKRLtIibC6Lxjlw5utPMYVp0pvjVtZmKtx9unbFZP6ES1lj0f0HK/az5V+vNV2yiwY2UWe0ZF6OuFngen/6Hq2jhVjtvzS7cy9rQrGOqPjBa4e2Pc4pHIVnE2GXWT7UldV0gz7gf91mDWQla64ynzNlkmPlMv6YgUy8qo4SFH6o/Ol2k6s59AeYWbxHrWIrzJgPc4aYFfArZdGr/bGoI2NFXh0I24WXYNFLQuvJsdMjjFu8H+EXTLseogs/9l4RoXM+ntmAFbvW+U9s/c6uYgTdfbFEI+K1Vb7FZbZV+DI4apnRbdPsrGkylvdh8gxh/59wseximbKquRfiaM3clXa1XtqK+o7eg+6+Z9ZYWzcF9ES6eo5rfRhtmV0C89n5kyGSl9ZHUNdny2pdpZcV566XfJAvQLbCK56iPfwAFaXeUsiWF3fFUjwVkskZ+HR5H1WRCtMnXkzOyc6TsEZno//7cm/0vbuwZuIHGdXGm6hR6desdbZA8KOMHJUG9tHD8Oc6eHds8xnBDOUPDaRbNwK32nOHtWxvpxKmu7zhPeY94deuj1GvKbbsXRWEWEk0wqsGkT3BmvHKg+sMqBxWYrtLZ+NvedTw3drb4Q9Zj7jUfcIEYffLJPtHR45FnzVwzIbGkawq49Bn7lkdBaeRfnde051xlNlD+wW7TlzuXNGhtUeYGUZs3vPVr1cYGYfd8kr1iKh/cm77qb0rQbsvSf6VTFriHSWzlfXfxU8w9tYPO59L6rLcGpPbKa8WwDPTqySq9oPR8plcWof9v39fYxxnecIEaf9Me/GbXGvARTJkR0SYPVHluYzEcvGfXD0/MERI+9Z98Fn9wrHOOZZrtxT3ER4cVQ9i6tYuIZZK9QP7mdQEhv3B56UzMKjclbOM2Y0PsqYN3lfX1+n8o2x7vncGZ2B93IT4bitN6XqusIEWPksY7esK7R/4ytusaRWwS2esTsTz7iikfVdtveXnSKNwlbj2xPhPZYUWZ339oDuUfezKYZng/KgjpbTxR4nj4PuQZWzD8VVcRkifOTB/siy3wvKGNi4Dc7whM48mHLmsfozDszhntjVx7Y65HL1w0arcBkiHOM/g/r9/X3ZEfwMKybALQZ4tY5bv5kmQ0eee3vE3wnde3007ezYsjHRJUGrL1PiPl11j7ACr7vU42NXeKTCh/k+YeEq/bPgMkTYfbxiVZ1jXNu66ZDgFdpRPTWKaTvlPgLuZWCdOQaqe0K3RGXpVin5W4Dti51NjlUCmyG0zuMT1TfGZHuJlTKO4jJE+F3BPKHZm310kKw8LFMhway+e3uJ9zYsum1fbaljWWcsH3ow5WdKsfI4QuYFVsfmKqgTkmfXz/pB9VXX24/K7XjW9lyhwuvr65cXspypC25OhOa5XMWDuRruuXe28n6sIOVH8wJX4kr7SkfGRaYcz14yrCju1cvEEWnfY9+wQ1DKk1Tps/JWPhdcGSuz/XozIsQ1cwy/FykeUbgzFmZU3xVPk3Zx5A0Z9x4L3x1dhXd0b60zTli6zFOseIhdGbpjkxn8V1zlYH2R9d/ZiJZZEdjP3T7eS6MHsNKr9TdO/T4bK5dGZ+reqwSfsXL/ZnX9Kzypjvexch7ce4wpr+WWch3ZL+3kZXuiHa94tVepsInwAkDimyXCIxNpNeF2PUO/YvBIHvCZOEsxznphzGOoltMhPQW1h5iVV/EQzwIqfww/u177ra6PkmA0Rm5x2n0VLkuE38U7qAyCSpqr9FX1pNjG9XDUA5xZRqsuG3bGE1Py2bLfkSXeKB0jQHVw5uxTo1hfFJbl7ZbfuW+rVqY65VyGCHEP8VEOiHTlPLNdz0I6VyH174TMurfrSjmVsDHy91RW9oUiOZTXg/thnb3OSjqmwyzvrfWbR3XPFMM75czKpE6RVvf+PIlm3i5bdboMEY7xuIp85WML93p0YhWqVt0jkN2VlpqviIrSzOJQyWUeYiU+Iu/MM1yJSNZbrphES9NHVwEwPV6z/UDW9syDW7kfyGS9FBHeA0c7d2YSdfYEn3nPLOu7W++rYF1H6ous3CqOHi+/BTKPseKFGOzZMUT1NHHm6an4zr3upLvFIQ9VviJ71R+V5eSoDh/uoe6p4V6esf8eYxPhzbFqT/CqqCqtbInjGXC2wpvFkWXACvHN1onpvIc4YxSsHksrSHBVHffGjJxnzIdVnvUmwo3TcEUS+O7oWPmVZcWZciPZPNCb2OPp+4Ht/SFWLDlvIrwobrmHsBLPtEe4keNW91GNq46HumJvsJKnc/I12/Ocwdl7glkZBrU/mJ0sj3RIVv4sNhGehBX7W5ssNp4ZVRLoLquqvT8V3ym/OyeZ4vZxZxi6TE7VH6xPMF+l/Ch8jHyv0PLjvvqtHsfaRDiBGZLD/Y5sLyWzdDc2GGbHyuyeYKX+qgcxRu+5O5X+KvPlqnvEVXT7Up0PiA78dZa+VTnVMA+UcRNhE0dOcVpeNmBs0N3zpOQtcSWFdVV0+yd7Ls+XWyGs7p5gtdwsPcMjE8ozonoSFHWev1bhY4w/nmF0wp7lq8jHsInwRESW7MZ1cOa9OVJ2ZzKf0Yaud9ct+x5zokvW3TQ+3VXIO5O7ci9m2oJEN8ZngosIEvMrORQRRjKztm4iPAns5nQmvvcQ7/nQ7T1wSzmidl+hP66iTK8Addikugym9gZXHBKJkD0onqU5gmwvj/UFysMIzaezD9NZqpyMEH0elt9Q9Ryx/bhneSkivJfiOToIq/mPuu/fAVcgH8OtvLmzZFDldfbsKuVV8na9KUN0MjA7iHIrLxnR2ec8cyuEnTfI0qOsnaVJPAehSK2yNGpQh2eYDKweBYy7GxEy60xZbBFWkNiRMo6SoFknBrYvcytyWFVPtU+uRHpXxBFSitJU9+y6e4LdvUAMr7yJB5UtltXVH7eCJyWmqBkJragPy+96voqoqnt50R4eI7AsHysDf1fw/v4+3t/f/+S5lEfocaVB/B1w6/6+6r7cahlu7fUfafsZe4IdQqoucyovKlvirpDxSiChdDzD1fWr+KjPGMlEHhkjteoSaSVfdD3j0Fx2afSZcHTJ4wrKfBb3lP1Wiu0W2Evnn8GIxX5X8qq9we7SYRfZftWZ9znz0lVfZEuQuLzpCY1ddz1CFVZZGs1w+T3CZ8OZ6/+rcSXZnokAZvuVeRBZPZ26ZuXKlkJXy6AUs+qbbPl2hSwVMO9P3cvVqwdZm2f7yJAtYUb7gyw/+2ZpWXwWXmnDGJsINxyuQIbPRIJHMLOCcNSzObonWN0LVPkxLHvLiIUpr+Yq+4SqnV4Zr5ST3ads+VgBPT/mCfpv5SFGS5r+W6XHfEzGLjYRPhCuMJE37ocz7n/HW+iUuVrWjlc1U/aMvNU891wOraCyNzhGfFim8sFyfF6PWxIhGiFjbCJs48gAjpZKz1BOHays496TfON54RW1kVmmCLP9sM7y6ZGlblXerEeToeKh494pW6bNPMH39/fx+/dv6hFGS56Iyh6hwuzSqOXbRDiBo274GLUTXZV0K7GirqMTOpLhlgQbWcwVbGPgMXD28ukVvD+Fo8SeLZlaOgb1qEzVM4zyVbE9whsBl3W6uOUexz32U9TgZXKcqUyq+1rVd3muwlUV6Mb3Be4HmkfIPESfh5UT1XH08EsE5vVuInwAPNI+4Vke05mW9eoTg5b+HkR21ljpHHjppMG4zDiywzHZCstVDsp4ZKdDz5b3aJ+wPUI8LOO/q2Wp+FnZZtJvItxYjqpyrCyPfGecdXJUpUGPt3tKtEuWXcWsDs7gNgLb87onsuV+v1e4qj51r6r94fcuccnTf37//v1pj5B5hIiVe6IzZXmDZO8Rbtwdt14CfXZ0lP5RgrgVyaAXlXmGlfJmPdtuPWN8lvteY7trHDFZ8XBJRJJVj/AojhAq5ttEuLGx8RBgS4sVgslOix71pFk6PPSRlXnLZf+o/RkJKq/w169fZY9Q4azTsxVsItzY2Ph2mPVoK3keYVVj1QlxdsrznoRWxfYINzY2NjZOwaMQIS7d3owIsw3te2xwn3mzspNh2XNqt97kv8KhgqOnyM6y8GfKvboi2NjY+C9OI8LX19dPpGbX+G0fDM9wVNHMHLedSRs9o6ZIL4o7A7cmQfVckerjKgnOnLLMwmfKfQSLeGNj47841SNkJ6a8kvCE4E+BVYlwBRmuTotyRUeZWbwKPxMr63l9fV3+4Pk9nx+cwTM8PxiVt+LEabWcqhGEOoWlOfu0qNdxKk7lO2PMML1SBTsV2vk8Gk4jQlyDrQ7C6g17xM5muMKS5Er885//HP/3//7fe4vxrdA99cgMs6g8Zahl9VfJFAmEGc0+3MM/h6dOQd7qtKiXWT1mgO1YSR6RcR1tSVm4P/X569evT88J/v333+Pj4+NPOPu2+EfEzfYIu1bSxmNi5tj0xjF0FPUKw+sM462z4lLN0/EMM6zaJz5b52XGR9aOyMOLniH08Y+I/x9ZoAJAYAjefAAAAABJRU5ErkJggg==;" vertex="1" parent="1">
          <mxGeometry x="-400" y="340" width="200" height="200" as="geometry" />
        </mxCell>
        <mxCell id="LiQD6WQA2YHTvC3KKHP3-136" value="" style="triangle;whiteSpace=wrap;html=1;fontColor=none;labelBackgroundColor=none;noLabel=1;strokeColor=none;fillColor=#000000;" vertex="1" parent="1">
          <mxGeometry x="-480" y="390" width="60" height="80" as="geometry" />
        </mxCell>
        <mxCell id="LiQD6WQA2YHTvC3KKHP3-225" style="edgeStyle=orthogonalEdgeStyle;rounded=0;orthogonalLoop=1;jettySize=auto;html=1;entryX=0;entryY=0.5;entryDx=0;entryDy=0;" edge="1" parent="1" source="LiQD6WQA2YHTvC3KKHP3-212" target="LiQD6WQA2YHTvC3KKHP3-224">
          <mxGeometry relative="1" as="geometry" />
        </mxCell>
        <mxCell id="LiQD6WQA2YHTvC3KKHP3-212" value="" style="rounded=0;whiteSpace=wrap;html=1;rotation=90;fillColor=#e1d5e7;strokeColor=#9673a6;" vertex="1" parent="1">
          <mxGeometry x="962.5" y="257.5" width="230" height="35" as="geometry" />
        </mxCell>
        <mxCell id="LiQD6WQA2YHTvC3KKHP3-228" style="edgeStyle=orthogonalEdgeStyle;rounded=0;orthogonalLoop=1;jettySize=auto;html=1;entryX=0;entryY=0.5;entryDx=0;entryDy=0;" edge="1" parent="1" source="LiQD6WQA2YHTvC3KKHP3-213" target="LiQD6WQA2YHTvC3KKHP3-224">
          <mxGeometry relative="1" as="geometry" />
        </mxCell>
        <mxCell id="LiQD6WQA2YHTvC3KKHP3-213" value="" style="rounded=0;whiteSpace=wrap;html=1;rotation=90;fillColor=#e1d5e7;strokeColor=#9673a6;" vertex="1" parent="1">
          <mxGeometry x="1120" y="567" width="187.5" height="35" as="geometry" />
        </mxCell>
        <mxCell id="LiQD6WQA2YHTvC3KKHP3-216" value="&lt;span style=&quot;font-size: 18px;&quot;&gt;Flatten&lt;/span&gt;" style="text;html=1;align=center;verticalAlign=middle;resizable=0;points=[];autosize=1;strokeColor=none;fillColor=none;" vertex="1" parent="1">
          <mxGeometry x="1173.75" y="680" width="80" height="40" as="geometry" />
        </mxCell>
        <mxCell id="LiQD6WQA2YHTvC3KKHP3-217" value="&lt;span style=&quot;font-size: 18px;&quot;&gt;Flatten&lt;/span&gt;" style="text;html=1;align=center;verticalAlign=middle;resizable=0;points=[];autosize=1;strokeColor=none;fillColor=none;" vertex="1" parent="1">
          <mxGeometry x="1037.5" y="400" width="80" height="40" as="geometry" />
        </mxCell>
        <mxCell id="LiQD6WQA2YHTvC3KKHP3-218" value="&lt;span style=&quot;font-size: 18px;&quot;&gt;2048&lt;/span&gt;" style="text;html=1;align=center;verticalAlign=middle;resizable=0;points=[];autosize=1;strokeColor=none;fillColor=none;" vertex="1" parent="1">
          <mxGeometry x="1047.5" y="110" width="60" height="40" as="geometry" />
        </mxCell>
        <mxCell id="LiQD6WQA2YHTvC3KKHP3-219" value="&lt;span style=&quot;font-size: 18px;&quot;&gt;1280&lt;/span&gt;" style="text;html=1;align=center;verticalAlign=middle;resizable=0;points=[];autosize=1;strokeColor=none;fillColor=none;" vertex="1" parent="1">
          <mxGeometry x="1183.75" y="440" width="60" height="40" as="geometry" />
        </mxCell>
        <mxCell id="LiQD6WQA2YHTvC3KKHP3-221" style="edgeStyle=orthogonalEdgeStyle;rounded=0;orthogonalLoop=1;jettySize=auto;html=1;entryX=0.52;entryY=0.994;entryDx=0;entryDy=0;entryPerimeter=0;strokeWidth=5;" edge="1" parent="1" source="LiQD6WQA2YHTvC3KKHP3-118" target="LiQD6WQA2YHTvC3KKHP3-212">
          <mxGeometry relative="1" as="geometry" />
        </mxCell>
        <mxCell id="LiQD6WQA2YHTvC3KKHP3-224" value="" style="shape=orEllipse;perimeter=ellipsePerimeter;whiteSpace=wrap;html=1;backgroundOutline=1;fillColor=#fad7ac;strokeColor=#b46504;" vertex="1" parent="1">
          <mxGeometry x="1307.5" y="360" width="80" height="80" as="geometry" />
        </mxCell>
        <mxCell id="LiQD6WQA2YHTvC3KKHP3-230" value="&lt;font style=&quot;font-size: 17px;&quot;&gt;AGREGATE&lt;/font&gt;" style="text;html=1;align=center;verticalAlign=middle;whiteSpace=wrap;rounded=0;" vertex="1" parent="1">
          <mxGeometry x="1317.5" y="460" width="60" height="30" as="geometry" />
        </mxCell>
        <mxCell id="LiQD6WQA2YHTvC3KKHP3-243" style="edgeStyle=orthogonalEdgeStyle;rounded=0;orthogonalLoop=1;jettySize=auto;html=1;" edge="1" parent="1" source="LiQD6WQA2YHTvC3KKHP3-232">
          <mxGeometry relative="1" as="geometry">
            <mxPoint x="1590" y="397.5" as="targetPoint" />
          </mxGeometry>
        </mxCell>
        <mxCell id="LiQD6WQA2YHTvC3KKHP3-232" value="" style="shape=cube;whiteSpace=wrap;html=1;boundedLbl=1;backgroundOutline=1;darkOpacity=0.05;darkOpacity2=0.1;flipH=1;rotation=90;flipV=0;direction=south;fillColor=#6d8764;strokeColor=#3A5431;fontColor=#ffffff;" vertex="1" parent="1">
          <mxGeometry x="1410" y="340" width="160" height="115" as="geometry" />
        </mxCell>
        <mxCell id="LiQD6WQA2YHTvC3KKHP3-237" value="&lt;font style=&quot;font-size: 17px;&quot;&gt;DenseNet&lt;/font&gt;" style="text;html=1;align=center;verticalAlign=middle;whiteSpace=wrap;rounded=0;" vertex="1" parent="1">
          <mxGeometry x="1460" y="480" width="60" height="30" as="geometry" />
        </mxCell>
        <mxCell id="LiQD6WQA2YHTvC3KKHP3-241" style="edgeStyle=orthogonalEdgeStyle;rounded=0;orthogonalLoop=1;jettySize=auto;html=1;entryX=0.984;entryY=0.514;entryDx=0;entryDy=0;entryPerimeter=0;" edge="1" parent="1" source="LiQD6WQA2YHTvC3KKHP3-224" target="LiQD6WQA2YHTvC3KKHP3-232">
          <mxGeometry relative="1" as="geometry" />
        </mxCell>
        <mxCell id="LiQD6WQA2YHTvC3KKHP3-244" value="&lt;b&gt;OUTPUT&lt;/b&gt;" style="rounded=1;whiteSpace=wrap;html=1;fillColor=#fa6800;fontColor=#000000;strokeColor=#C73500;" vertex="1" parent="1">
          <mxGeometry x="1590" y="367.5" width="120" height="60" as="geometry" />
        </mxCell>
      </root>
    </mxGraphModel>
  </diagram>
</mxfile>
